<svg width="803" height="175" viewBox="0 0 803 175" fill="none" xmlns="http://www.w3.org/2000/svg">
<path d="M41.6665 12.7797C41.7993 11.3503 43.8869 11.3522 44.0171 12.7819L45.3896 27.8579C45.9538 34.056 50.7978 39.0032 56.9826 39.698L76.3337 41.8719C77.714 42.027 77.7392 44.0241 76.3632 44.2139L56.6422 46.9346C50.6095 47.7668 45.9441 52.6436 45.3797 58.7073L44.0088 73.4372C43.8761 74.8628 41.796 74.8661 41.6588 73.441L40.2319 58.621C39.6493 52.5693 34.9827 47.7121 28.9592 46.8878L9.3956 44.2106C8.01849 44.0222 8.04284 42.0232 9.42413 41.8684L28.6689 39.711C34.846 39.0185 39.6879 34.0836 40.2627 27.8944L41.6665 12.7797Z" fill="#FF8D3B"/>
<rect x="40.8555" y="26.5309" width="20.0959" height="35.5205" rx="10.048" transform="rotate(134.57 40.8555 26.5309)" fill="white"/>
<rect x="84.4766" y="69.7587" width="20.0959" height="35.5205" rx="10.048" transform="rotate(134.57 84.4766 69.7587)" fill="white"/>
<rect x="70.1582" y="1.45715" width="20.0959" height="35.5205" rx="10.048" transform="rotate(45 70.1582 1.45715)" fill="white"/>
<rect x="26.502" y="45.1082" width="20.0959" height="35.5205" rx="10.048" transform="rotate(45 26.502 45.1082)" fill="white"/>
<path d="M113.506 65.9249V23.044H122.427V58.1546H140.558V65.9249H113.506ZM144.35 65.9249V34.4981H152.984V65.9249H144.35ZM144.35 31.6778V23.044H152.984V31.6778H144.35ZM169.144 65.9249L156.769 34.4981H166.093L174.67 58.2697H171.101L179.677 34.4981H189.002L176.627 65.9249H169.144ZM207.378 66.6156C204.04 66.6156 201.143 65.8866 198.687 64.4284C196.231 62.9319 194.331 60.9365 192.988 58.4424C191.645 55.9482 190.974 53.1854 190.974 50.154C190.974 47.0074 191.665 44.2063 193.046 41.7505C194.466 39.2946 196.365 37.3568 198.744 35.9371C201.123 34.5173 203.809 33.8074 206.802 33.8074C209.297 33.8074 211.503 34.2103 213.422 35.0161C215.34 35.7836 216.952 36.8772 218.257 38.297C219.6 39.7167 220.616 41.3667 221.307 43.247C221.998 45.0888 222.343 47.1034 222.343 49.2906C222.343 49.9045 222.305 50.5185 222.228 51.1325C222.19 51.708 222.094 52.2069 221.94 52.629H198.399V46.2976H217.048L212.961 49.2906C213.345 47.6406 213.326 46.1824 212.904 44.9162C212.482 43.6115 211.733 42.5946 210.659 41.8656C209.623 41.0981 208.337 40.7144 206.802 40.7144C205.306 40.7144 204.02 41.0789 202.946 41.808C201.872 42.5371 201.066 43.6115 200.529 45.0313C199.991 46.451 199.78 48.1778 199.895 50.2115C199.742 51.9766 199.953 53.5307 200.529 54.8737C201.104 56.2168 201.987 57.272 203.176 58.0394C204.366 58.7685 205.805 59.1331 207.493 59.1331C209.028 59.1331 210.333 58.8261 211.407 58.2121C212.52 57.5982 213.383 56.754 213.997 55.6796L220.904 58.9604C220.29 60.4953 219.312 61.8383 217.969 62.9895C216.664 64.1406 215.11 65.0424 213.307 65.6947C211.503 66.3086 209.527 66.6156 207.378 66.6156ZM238.403 65.9249V23.044H247.324V65.9249H238.403ZM254.295 65.9249V34.4981H262.353V40.7144L261.893 39.333C262.622 37.4528 263.792 36.0714 265.404 35.1888C267.054 34.2679 268.973 33.8074 271.16 33.8074C273.539 33.8074 275.611 34.3063 277.376 35.3039C279.18 36.3016 280.58 37.7022 281.578 39.5057C282.575 41.2708 283.074 43.3429 283.074 45.722V65.9249H274.441V47.5638C274.441 46.3359 274.191 45.2807 273.692 44.3981C273.232 43.5156 272.56 42.8249 271.678 42.326C270.834 41.8272 269.836 41.5778 268.685 41.5778C267.572 41.5778 266.574 41.8272 265.692 42.326C264.809 42.8249 264.118 43.5156 263.62 44.3981C263.159 45.2807 262.929 46.3359 262.929 47.5638V65.9249H254.295ZM304.177 66.6156C301.031 66.6156 298.191 65.9057 295.658 64.486C293.164 63.0278 291.169 61.0517 289.672 58.5575C288.214 56.0633 287.485 53.2621 287.485 50.154C287.485 47.0458 288.214 44.2638 289.672 41.808C291.131 39.3138 293.126 37.3568 295.658 35.9371C298.191 34.5173 301.031 33.8074 304.177 33.8074C306.518 33.8074 308.686 34.2103 310.681 35.0161C312.676 35.822 314.384 36.9539 315.804 38.4121C317.224 39.8318 318.24 41.5202 318.854 43.4772L311.372 46.7005C310.835 45.1272 309.914 43.8801 308.609 42.9592C307.343 42.0382 305.865 41.5778 304.177 41.5778C302.681 41.5778 301.338 41.9423 300.148 42.6714C298.997 43.4005 298.076 44.4173 297.385 45.722C296.733 47.0266 296.407 48.5231 296.407 50.2115C296.407 51.8999 296.733 53.3964 297.385 54.7011C298.076 56.0057 298.997 57.0226 300.148 57.7517C301.338 58.4807 302.681 58.8453 304.177 58.8453C305.904 58.8453 307.4 58.3848 308.667 57.4639C309.933 56.5429 310.835 55.2958 311.372 53.7226L318.854 57.0034C318.279 58.8453 317.281 60.4953 315.861 61.9534C314.442 63.4115 312.734 64.5627 310.739 65.4069C308.743 66.2127 306.556 66.6156 304.177 66.6156ZM323.938 65.9249V34.4981H332.572V65.9249H323.938ZM323.938 31.6778V23.044H332.572V31.6778H323.938ZM353.683 66.6156C350.613 66.6156 347.869 65.8866 345.452 64.4284C343.034 62.9703 341.116 60.9941 339.696 58.4999C338.314 56.0057 337.624 53.2429 337.624 50.2115C337.624 47.1417 338.334 44.379 339.753 41.9231C341.173 39.4289 343.092 37.4528 345.509 35.9946C347.927 34.5365 350.632 33.8074 353.625 33.8074C355.927 33.8074 357.961 34.2487 359.726 35.1313C361.53 35.9754 362.949 37.1842 363.985 38.7574L362.662 40.4842V22.3533H371.295V65.9249H363.237V60.1691L364.043 61.9534C362.969 63.4883 361.51 64.6586 359.669 65.4645C357.827 66.2319 355.831 66.6156 353.683 66.6156ZM354.719 58.8453C356.292 58.8453 357.673 58.4807 358.863 57.7517C360.052 57.0226 360.973 56.0057 361.626 54.7011C362.316 53.3964 362.662 51.8999 362.662 50.2115C362.662 48.5231 362.316 47.0266 361.626 45.722C360.973 44.4173 360.052 43.4005 358.863 42.6714C357.673 41.9423 356.292 41.5778 354.719 41.5778C353.145 41.5778 351.726 41.9615 350.459 42.7289C349.231 43.458 348.272 44.4749 347.581 45.7795C346.891 47.0458 346.545 48.5231 346.545 50.2115C346.545 51.8999 346.891 53.3964 347.581 54.7011C348.272 56.0057 349.231 57.0226 350.459 57.7517C351.726 58.4807 353.145 58.8453 354.719 58.8453ZM392.756 66.6156C389.418 66.6156 386.521 65.8866 384.065 64.4284C381.609 62.9319 379.71 60.9365 378.367 58.4424C377.023 55.9482 376.352 53.1854 376.352 50.154C376.352 47.0074 377.043 44.2063 378.424 41.7505C379.844 39.2946 381.743 37.3568 384.122 35.9371C386.501 34.5173 389.187 33.8074 392.18 33.8074C394.675 33.8074 396.881 34.2103 398.8 35.0161C400.718 35.7836 402.33 36.8772 403.635 38.297C404.978 39.7167 405.994 41.3667 406.685 43.247C407.376 45.0888 407.721 47.1034 407.721 49.2906C407.721 49.9045 407.683 50.5185 407.606 51.1325C407.568 51.708 407.472 52.2069 407.318 52.629H383.777V46.2976H402.426L398.339 49.2906C398.723 47.6406 398.704 46.1824 398.282 44.9162C397.86 43.6115 397.111 42.5946 396.037 41.8656C395.001 41.0981 393.715 40.7144 392.18 40.7144C390.684 40.7144 389.399 41.0789 388.324 41.808C387.25 42.5371 386.444 43.6115 385.907 45.0313C385.369 46.451 385.158 48.1778 385.273 50.2115C385.12 51.9766 385.331 53.5307 385.907 54.8737C386.482 56.2168 387.365 57.272 388.554 58.0394C389.744 58.7685 391.183 59.1331 392.871 59.1331C394.406 59.1331 395.711 58.8261 396.785 58.2121C397.898 57.5982 398.761 56.754 399.375 55.6796L406.282 58.9604C405.668 60.4953 404.69 61.8383 403.347 62.9895C402.042 64.1406 400.488 65.0424 398.685 65.6947C396.881 66.3086 394.905 66.6156 392.756 66.6156ZM412.805 65.9249V34.4981H420.863V40.7144L420.403 39.333C421.132 37.4528 422.302 36.0714 423.914 35.1888C425.564 34.2679 427.483 33.8074 429.67 33.8074C432.049 33.8074 434.121 34.3063 435.886 35.3039C437.69 36.3016 439.09 37.7022 440.088 39.5057C441.086 41.2708 441.584 43.3429 441.584 45.722V65.9249H432.951V47.5638C432.951 46.3359 432.701 45.2807 432.202 44.3981C431.742 43.5156 431.07 42.8249 430.188 42.326C429.344 41.8272 428.346 41.5778 427.195 41.5778C426.082 41.5778 425.084 41.8272 424.202 42.326C423.319 42.8249 422.629 43.5156 422.13 44.3981C421.669 45.2807 421.439 46.3359 421.439 47.5638V65.9249H412.805ZM462.687 66.6156C459.541 66.6156 456.701 65.9057 454.168 64.486C451.674 63.0278 449.679 61.0517 448.182 58.5575C446.724 56.0633 445.995 53.2621 445.995 50.154C445.995 47.0458 446.724 44.2638 448.182 41.808C449.641 39.3138 451.636 37.3568 454.168 35.9371C456.701 34.5173 459.541 33.8074 462.687 33.8074C465.028 33.8074 467.196 34.2103 469.191 35.0161C471.187 35.822 472.894 36.9539 474.314 38.4121C475.734 39.8318 476.75 41.5202 477.364 43.4772L469.882 46.7005C469.345 45.1272 468.424 43.8801 467.119 42.9592C465.853 42.0382 464.375 41.5778 462.687 41.5778C461.191 41.5778 459.848 41.9423 458.658 42.6714C457.507 43.4005 456.586 44.4173 455.895 45.722C455.243 47.0266 454.917 48.5231 454.917 50.2115C454.917 51.8999 455.243 53.3964 455.895 54.7011C456.586 56.0057 457.507 57.0226 458.658 57.7517C459.848 58.4807 461.191 58.8453 462.687 58.8453C464.414 58.8453 465.91 58.3848 467.177 57.4639C468.443 56.5429 469.345 55.2958 469.882 53.7226L477.364 57.0034C476.789 58.8453 475.791 60.4953 474.371 61.9534C472.952 63.4115 471.244 64.5627 469.249 65.4069C467.253 66.2127 465.066 66.6156 462.687 66.6156ZM497.586 66.6156C494.248 66.6156 491.351 65.8866 488.895 64.4284C486.439 62.9319 484.54 60.9365 483.197 58.4424C481.854 55.9482 481.182 53.1854 481.182 50.154C481.182 47.0074 481.873 44.2063 483.254 41.7505C484.674 39.2946 486.573 37.3568 488.953 35.9371C491.332 34.5173 494.018 33.8074 497.011 33.8074C499.505 33.8074 501.711 34.2103 503.63 35.0161C505.548 35.7836 507.16 36.8772 508.465 38.297C509.808 39.7167 510.825 41.3667 511.515 43.247C512.206 45.0888 512.551 47.1034 512.551 49.2906C512.551 49.9045 512.513 50.5185 512.436 51.1325C512.398 51.708 512.302 52.2069 512.149 52.629H488.607V46.2976H507.256L503.169 49.2906C503.553 47.6406 503.534 46.1824 503.112 44.9162C502.69 43.6115 501.942 42.5946 500.867 41.8656C499.831 41.0981 498.546 40.7144 497.011 40.7144C495.514 40.7144 494.229 41.0789 493.154 41.808C492.08 42.5371 491.274 43.6115 490.737 45.0313C490.2 46.451 489.989 48.1778 490.104 50.2115C489.95 51.9766 490.161 53.5307 490.737 54.8737C491.312 56.2168 492.195 57.272 493.385 58.0394C494.574 58.7685 496.013 59.1331 497.701 59.1331C499.236 59.1331 500.541 58.8261 501.615 58.2121C502.728 57.5982 503.592 56.754 504.205 55.6796L511.112 58.9604C510.499 60.4953 509.52 61.8383 508.177 62.9895C506.872 64.1406 505.318 65.0424 503.515 65.6947C501.711 66.3086 499.735 66.6156 497.586 66.6156ZM528.611 65.9249V23.044H545.015C547.97 23.044 550.579 23.562 552.843 24.5981C555.145 25.6341 556.949 27.169 558.254 29.2028C559.558 31.2365 560.211 33.7499 560.211 36.7429C560.211 39.6592 559.539 42.1534 558.196 44.2255C556.853 46.2592 555.049 47.7941 552.786 48.8301L562.57 65.9249H552.555L541.965 46.9883L547.72 50.3842H537.533V65.9249H528.611ZM537.533 42.6138H545.073C546.339 42.6138 547.433 42.3644 548.354 41.8656C549.274 41.3667 549.984 40.676 550.483 39.7935C551.02 38.9109 551.289 37.8941 551.289 36.7429C551.289 35.5534 551.02 34.5173 550.483 33.6347C549.984 32.7522 549.274 32.0615 548.354 31.5626C547.433 31.0638 546.339 30.8144 545.073 30.8144H537.533V42.6138ZM579.764 66.6156C576.426 66.6156 573.529 65.8866 571.073 64.4284C568.617 62.9319 566.718 60.9365 565.375 58.4424C564.032 55.9482 563.36 53.1854 563.36 50.154C563.36 47.0074 564.051 44.2063 565.432 41.7505C566.852 39.2946 568.751 37.3568 571.13 35.9371C573.51 34.5173 576.196 33.8074 579.189 33.8074C581.683 33.8074 583.889 34.2103 585.808 35.0161C587.726 35.7836 589.338 36.8772 590.643 38.297C591.986 39.7167 593.003 41.3667 593.693 43.247C594.384 45.0888 594.729 47.1034 594.729 49.2906C594.729 49.9045 594.691 50.5185 594.614 51.1325C594.576 51.708 594.48 52.2069 594.326 52.629H570.785V46.2976H589.434L585.347 49.2906C585.731 47.6406 585.712 46.1824 585.29 44.9162C584.868 43.6115 584.119 42.5946 583.045 41.8656C582.009 41.0981 580.723 40.7144 579.189 40.7144C577.692 40.7144 576.407 41.0789 575.332 41.808C574.258 42.5371 573.452 43.6115 572.915 45.0313C572.378 46.451 572.166 48.1778 572.282 50.2115C572.128 51.9766 572.339 53.5307 572.915 54.8737C573.49 56.2168 574.373 57.272 575.562 58.0394C576.752 58.7685 578.191 59.1331 579.879 59.1331C581.414 59.1331 582.719 58.8261 583.793 58.2121C584.906 57.5982 585.769 56.754 586.383 55.6796L593.29 58.9604C592.676 60.4953 591.698 61.8383 590.355 62.9895C589.05 64.1406 587.496 65.0424 585.693 65.6947C583.889 66.3086 581.913 66.6156 579.764 66.6156ZM612.131 66.6156C608.677 66.6156 605.665 65.8098 603.094 64.1982C600.562 62.5482 598.835 60.3418 597.914 57.579L604.245 54.5859C605.051 56.2743 606.145 57.5982 607.526 58.5575C608.908 59.5168 610.442 59.9964 612.131 59.9964C613.359 59.9964 614.299 59.747 614.951 59.2482C615.603 58.7493 615.93 58.0586 615.93 57.1761C615.93 56.7156 615.815 56.3319 615.584 56.0249C615.354 55.6796 615.009 55.3726 614.548 55.104C614.088 54.8354 613.512 54.6051 612.822 54.4133L607.469 52.9168C604.898 52.1877 602.921 51.0173 601.54 49.4057C600.159 47.7557 599.468 45.8179 599.468 43.5923C599.468 41.6353 599.967 39.9278 600.965 38.4696C601.962 37.0115 603.363 35.8795 605.166 35.0737C606.97 34.2295 609.042 33.8074 611.383 33.8074C614.452 33.8074 617.138 34.5365 619.441 35.9946C621.781 37.4144 623.431 39.4289 624.391 42.0382L618.002 45.0313C617.541 43.7266 616.697 42.6906 615.469 41.9231C614.28 41.1173 612.917 40.7144 611.383 40.7144C610.27 40.7144 609.387 40.9446 608.735 41.4051C608.121 41.8656 607.814 42.4987 607.814 43.3045C607.814 43.7266 607.929 44.1103 608.159 44.4557C608.39 44.801 608.754 45.108 609.253 45.3766C609.79 45.6452 610.442 45.8947 611.21 46.1249L616.217 47.6214C618.827 48.3888 620.822 49.5592 622.204 51.1325C623.585 52.6673 624.276 54.5668 624.276 56.8307C624.276 58.7877 623.758 60.4953 622.722 61.9534C621.724 63.4115 620.323 64.5627 618.52 65.4069C616.716 66.2127 614.587 66.6156 612.131 66.6156ZM629.436 77.4366V34.4981H637.494V40.4842L636.746 38.7574C637.782 37.1842 639.182 35.9754 640.947 35.1313C642.751 34.2487 644.804 33.8074 647.106 33.8074C650.099 33.8074 652.804 34.5365 655.222 35.9946C657.639 37.4528 659.558 39.4289 660.978 41.9231C662.397 44.379 663.107 47.1417 663.107 50.2115C663.107 53.2429 662.397 56.0057 660.978 58.4999C659.596 60.9941 657.697 62.9703 655.279 64.4284C652.862 65.8866 650.118 66.6156 647.048 66.6156C644.9 66.6156 642.904 66.2319 641.062 65.4645C639.259 64.6586 637.801 63.4883 636.688 61.9534L638.069 60.1691V77.4366H629.436ZM646.012 58.8453C647.624 58.8453 649.044 58.4807 650.272 57.7517C651.5 57.0226 652.459 56.0057 653.15 54.7011C653.84 53.3964 654.186 51.8999 654.186 50.2115C654.186 48.5231 653.84 47.0458 653.15 45.7795C652.459 44.4749 651.5 43.458 650.272 42.7289C649.044 41.9615 647.624 41.5778 646.012 41.5778C644.477 41.5778 643.096 41.9423 641.868 42.6714C640.679 43.4005 639.739 44.4173 639.048 45.722C638.396 47.0266 638.069 48.5231 638.069 50.2115C638.069 51.8999 638.396 53.3964 639.048 54.7011C639.739 56.0057 640.679 57.0226 641.868 57.7517C643.096 58.4807 644.477 58.8453 646.012 58.8453ZM683.762 66.6156C680.654 66.6156 677.814 65.9057 675.243 64.486C672.711 63.0662 670.677 61.1284 669.142 58.6726C667.646 56.1784 666.897 53.358 666.897 50.2115C666.897 47.0266 667.646 44.2063 669.142 41.7505C670.677 39.2946 672.711 37.3568 675.243 35.9371C677.814 34.5173 680.654 33.8074 683.762 33.8074C686.87 33.8074 689.691 34.5173 692.223 35.9371C694.756 37.3568 696.77 39.2946 698.267 41.7505C699.802 44.2063 700.569 47.0266 700.569 50.2115C700.569 53.358 699.802 56.1784 698.267 58.6726C696.77 61.1284 694.756 63.0662 692.223 64.486C689.691 65.9057 686.87 66.6156 683.762 66.6156ZM683.762 58.8453C685.335 58.8453 686.698 58.4807 687.849 57.7517C689.038 57.0226 689.959 56.0057 690.611 54.7011C691.302 53.3964 691.648 51.8999 691.648 50.2115C691.648 48.5231 691.302 47.0458 690.611 45.7795C689.959 44.4749 689.038 43.458 687.849 42.7289C686.698 41.9615 685.335 41.5778 683.762 41.5778C682.189 41.5778 680.807 41.9615 679.618 42.7289C678.428 43.458 677.488 44.4749 676.797 45.7795C676.145 47.0458 675.819 48.5231 675.819 50.2115C675.819 51.8999 676.145 53.3964 676.797 54.7011C677.488 56.0057 678.428 57.0226 679.618 57.7517C680.807 58.4807 682.189 58.8453 683.762 58.8453ZM705.655 65.9249V34.4981H713.713V40.7144L713.253 39.333C713.982 37.4528 715.152 36.0714 716.764 35.1888C718.414 34.2679 720.333 33.8074 722.52 33.8074C724.899 33.8074 726.971 34.3063 728.736 35.3039C730.54 36.3016 731.94 37.7022 732.938 39.5057C733.936 41.2708 734.434 43.3429 734.434 45.722V65.9249H725.801V47.5638C725.801 46.3359 725.551 45.2807 725.052 44.3981C724.592 43.5156 723.92 42.8249 723.038 42.326C722.194 41.8272 721.196 41.5778 720.045 41.5778C718.932 41.5778 717.934 41.8272 717.052 42.326C716.169 42.8249 715.479 43.5156 714.98 44.3981C714.519 45.2807 714.289 46.3359 714.289 47.5638V65.9249H705.655ZM752.429 66.6156C748.976 66.6156 745.963 65.8098 743.392 64.1982C740.86 62.5482 739.133 60.3418 738.212 57.579L744.544 54.5859C745.349 56.2743 746.443 57.5982 747.824 58.5575C749.206 59.5168 750.741 59.9964 752.429 59.9964C753.657 59.9964 754.597 59.747 755.249 59.2482C755.902 58.7493 756.228 58.0586 756.228 57.1761C756.228 56.7156 756.113 56.3319 755.883 56.0249C755.652 55.6796 755.307 55.3726 754.847 55.104C754.386 54.8354 753.81 54.6051 753.12 54.4133L747.767 52.9168C745.196 52.1877 743.22 51.0173 741.838 49.4057C740.457 47.7557 739.766 45.8179 739.766 43.5923C739.766 41.6353 740.265 39.9278 741.263 38.4696C742.26 37.0115 743.661 35.8795 745.465 35.0737C747.268 34.2295 749.34 33.8074 751.681 33.8074C754.751 33.8074 757.437 34.5365 759.739 35.9946C762.08 37.4144 763.73 39.4289 764.689 42.0382L758.3 45.0313C757.84 43.7266 756.995 42.6906 755.767 41.9231C754.578 41.1173 753.216 40.7144 751.681 40.7144C750.568 40.7144 749.685 40.9446 749.033 41.4051C748.419 41.8656 748.112 42.4987 748.112 43.3045C748.112 43.7266 748.227 44.1103 748.458 44.4557C748.688 44.801 749.052 45.108 749.551 45.3766C750.088 45.6452 750.741 45.8947 751.508 46.1249L756.516 47.6214C759.125 48.3888 761.12 49.5592 762.502 51.1325C763.883 52.6673 764.574 54.5668 764.574 56.8307C764.574 58.7877 764.056 60.4953 763.02 61.9534C762.022 63.4115 760.622 64.5627 758.818 65.4069C757.015 66.2127 754.885 66.6156 752.429 66.6156ZM784.872 66.6156C781.533 66.6156 778.636 65.8866 776.18 64.4284C773.725 62.9319 771.825 60.9365 770.482 58.4424C769.139 55.9482 768.468 53.1854 768.468 50.154C768.468 47.0074 769.158 44.2063 770.54 41.7505C771.959 39.2946 773.859 37.3568 776.238 35.9371C778.617 34.5173 781.303 33.8074 784.296 33.8074C786.79 33.8074 788.997 34.2103 790.915 35.0161C792.834 35.7836 794.446 36.8772 795.75 38.297C797.093 39.7167 798.11 41.3667 798.801 43.247C799.492 45.0888 799.837 47.1034 799.837 49.2906C799.837 49.9045 799.798 50.5185 799.722 51.1325C799.683 51.708 799.587 52.2069 799.434 52.629H775.893V46.2976H794.541L790.455 49.2906C790.839 47.6406 790.819 46.1824 790.397 44.9162C789.975 43.6115 789.227 42.5946 788.153 41.8656C787.116 41.0981 785.831 40.7144 784.296 40.7144C782.8 40.7144 781.514 41.0789 780.44 41.808C779.365 42.5371 778.559 43.6115 778.022 45.0313C777.485 46.451 777.274 48.1778 777.389 50.2115C777.236 51.9766 777.447 53.5307 778.022 54.8737C778.598 56.2168 779.48 57.272 780.67 58.0394C781.859 58.7685 783.298 59.1331 784.987 59.1331C786.522 59.1331 787.826 58.8261 788.901 58.2121C790.014 57.5982 790.877 56.754 791.491 55.6796L798.398 58.9604C797.784 60.4953 796.805 61.8383 795.462 62.9895C794.158 64.1406 792.604 65.0424 790.8 65.6947C788.997 66.3086 787.021 66.6156 784.872 66.6156Z" fill="white"/>
<path d="M10.4655 138.85V123.13H5.61752V120.97H17.6175V123.13H12.8415V138.85H10.4655ZM19.6206 138.85V125.914H21.8526V138.85H19.6206ZM19.6206 123.85V120.97H21.8526V123.85H19.6206ZM25.3159 138.85V125.914H27.4999V128.554L27.1879 128.146C27.5079 127.33 28.0199 126.706 28.7239 126.274C29.4279 125.842 30.2199 125.626 31.0999 125.626C32.1079 125.626 33.0119 125.906 33.8119 126.466C34.6279 127.026 35.1879 127.762 35.4919 128.674L34.8679 128.698C35.2039 127.69 35.7719 126.93 36.5719 126.418C37.3719 125.89 38.2599 125.626 39.2359 125.626C40.1319 125.626 40.9399 125.834 41.6599 126.25C42.3959 126.666 42.9799 127.242 43.4119 127.978C43.8439 128.714 44.0599 129.546 44.0599 130.474V138.85H41.8039V131.194C41.8039 130.474 41.6759 129.866 41.4199 129.37C41.1639 128.874 40.8119 128.49 40.3639 128.218C39.9319 127.93 39.4199 127.786 38.8279 127.786C38.2519 127.786 37.7319 127.93 37.2679 128.218C36.8199 128.49 36.4599 128.882 36.1879 129.394C35.9319 129.89 35.8039 130.49 35.8039 131.194V138.85H33.5479V131.194C33.5479 130.474 33.4199 129.866 33.1639 129.37C32.9079 128.874 32.5559 128.49 32.1079 128.218C31.6759 127.93 31.1639 127.786 30.5719 127.786C29.9959 127.786 29.4759 127.93 29.0119 128.218C28.5639 128.49 28.2039 128.882 27.9319 129.394C27.6759 129.89 27.5479 130.49 27.5479 131.194V138.85H25.3159ZM53.182 139.138C51.934 139.138 50.822 138.842 49.846 138.25C48.87 137.658 48.102 136.85 47.542 135.826C46.982 134.786 46.702 133.626 46.702 132.346C46.702 131.05 46.974 129.898 47.518 128.89C48.078 127.882 48.83 127.09 49.774 126.514C50.734 125.922 51.806 125.626 52.99 125.626C53.95 125.626 54.798 125.802 55.534 126.154C56.286 126.49 56.918 126.954 57.43 127.546C57.958 128.122 58.358 128.786 58.63 129.538C58.918 130.274 59.062 131.042 59.062 131.842C59.062 132.018 59.046 132.218 59.014 132.442C58.998 132.65 58.974 132.85 58.942 133.042H48.334V131.122H57.646L56.59 131.986C56.734 131.154 56.654 130.41 56.35 129.754C56.046 129.098 55.598 128.578 55.006 128.194C54.414 127.81 53.742 127.618 52.99 127.618C52.238 127.618 51.55 127.81 50.926 128.194C50.302 128.578 49.814 129.13 49.462 129.85C49.126 130.554 48.99 131.394 49.054 132.37C48.99 133.314 49.134 134.146 49.486 134.866C49.854 135.57 50.366 136.122 51.022 136.522C51.694 136.906 52.422 137.098 53.206 137.098C54.07 137.098 54.798 136.898 55.39 136.498C55.982 136.098 56.462 135.586 56.83 134.962L58.702 135.922C58.446 136.514 58.046 137.058 57.502 137.554C56.974 138.034 56.342 138.418 55.606 138.706C54.886 138.994 54.078 139.138 53.182 139.138ZM61.9721 138.85V120.682H64.2041V138.85H61.9721ZM67.6675 138.85V125.914H69.8995V138.85H67.6675ZM67.6675 123.85V120.97H69.8995V123.85H67.6675ZM73.3628 138.85V125.914H75.5468V128.434L75.1868 128.218C75.5068 127.402 76.0188 126.77 76.7228 126.322C77.4428 125.858 78.2828 125.626 79.2428 125.626C80.1708 125.626 80.9948 125.834 81.7148 126.25C82.4508 126.666 83.0268 127.242 83.4428 127.978C83.8748 128.714 84.0908 129.546 84.0908 130.474V138.85H81.8348V131.194C81.8348 130.474 81.7068 129.866 81.4508 129.37C81.1948 128.874 80.8268 128.49 80.3468 128.218C79.8828 127.93 79.3468 127.786 78.7388 127.786C78.1308 127.786 77.5868 127.93 77.1068 128.218C76.6428 128.49 76.2748 128.882 76.0028 129.394C75.7308 129.89 75.5948 130.49 75.5948 131.194V138.85H73.3628ZM93.2366 139.138C91.9886 139.138 90.8766 138.842 89.9006 138.25C88.9246 137.658 88.1566 136.85 87.5966 135.826C87.0366 134.786 86.7566 133.626 86.7566 132.346C86.7566 131.05 87.0286 129.898 87.5726 128.89C88.1326 127.882 88.8846 127.09 89.8286 126.514C90.7886 125.922 91.8606 125.626 93.0446 125.626C94.0046 125.626 94.8526 125.802 95.5886 126.154C96.3406 126.49 96.9726 126.954 97.4846 127.546C98.0126 128.122 98.4126 128.786 98.6846 129.538C98.9726 130.274 99.1166 131.042 99.1166 131.842C99.1166 132.018 99.1006 132.218 99.0686 132.442C99.0526 132.65 99.0286 132.85 98.9966 133.042H88.3886V131.122H97.7006L96.6446 131.986C96.7886 131.154 96.7086 130.41 96.4046 129.754C96.1006 129.098 95.6526 128.578 95.0606 128.194C94.4686 127.81 93.7966 127.618 93.0446 127.618C92.2926 127.618 91.6046 127.81 90.9806 128.194C90.3566 128.578 89.8686 129.13 89.5166 129.85C89.1806 130.554 89.0446 131.394 89.1086 132.37C89.0446 133.314 89.1886 134.146 89.5406 134.866C89.9086 135.57 90.4206 136.122 91.0766 136.522C91.7486 136.906 92.4766 137.098 93.2606 137.098C94.1246 137.098 94.8526 136.898 95.4446 136.498C96.0366 136.098 96.5166 135.586 96.8846 134.962L98.7566 135.922C98.5006 136.514 98.1006 137.058 97.5566 137.554C97.0286 138.034 96.3966 138.418 95.6606 138.706C94.9406 138.994 94.1326 139.138 93.2366 139.138Z" fill="#BBBBBB"/>
<path d="M15.1695 168.85V164.722H6.38552V162.778L15.1215 150.97H17.3775V162.778H19.7055V164.722H17.3775V168.85H15.1695ZM8.16152 163.618L7.82552 162.778H15.1695V152.938L15.8655 153.13L8.16152 163.618ZM29.5106 168.85L25.0706 155.914H27.5426L31.0706 166.738L30.2066 166.714L33.6626 155.914H35.7746L39.2306 166.714L38.3666 166.738L41.9186 155.914H44.3666L39.9266 168.85H37.7906L34.3826 158.05H35.0546L31.6466 168.85H29.5106ZM52.0804 169.138C50.8324 169.138 49.7204 168.842 48.7444 168.25C47.7684 167.658 47.0004 166.85 46.4404 165.826C45.8804 164.786 45.6004 163.626 45.6004 162.346C45.6004 161.05 45.8724 159.898 46.4164 158.89C46.9764 157.882 47.7284 157.09 48.6724 156.514C49.6324 155.922 50.7044 155.626 51.8884 155.626C52.8484 155.626 53.6964 155.802 54.4324 156.154C55.1844 156.49 55.8164 156.954 56.3284 157.546C56.8564 158.122 57.2564 158.786 57.5284 159.538C57.8164 160.274 57.9604 161.042 57.9604 161.842C57.9604 162.018 57.9444 162.218 57.9124 162.442C57.8964 162.65 57.8724 162.85 57.8404 163.042H47.2324V161.122H56.5444L55.4884 161.986C55.6324 161.154 55.5524 160.41 55.2484 159.754C54.9444 159.098 54.4964 158.578 53.9044 158.194C53.3124 157.81 52.6404 157.618 51.8884 157.618C51.1364 157.618 50.4484 157.81 49.8244 158.194C49.2004 158.578 48.7124 159.13 48.3604 159.85C48.0244 160.554 47.8884 161.394 47.9524 162.37C47.8884 163.314 48.0324 164.146 48.3844 164.866C48.7524 165.57 49.2644 166.122 49.9204 166.522C50.5924 166.906 51.3204 167.098 52.1044 167.098C52.9684 167.098 53.6964 166.898 54.2884 166.498C54.8804 166.098 55.3604 165.586 55.7284 164.962L57.6004 165.922C57.3444 166.514 56.9444 167.058 56.4004 167.554C55.8724 168.034 55.2404 168.418 54.5044 168.706C53.7844 168.994 52.9764 169.138 52.0804 169.138ZM66.8226 169.138C65.5746 169.138 64.4626 168.842 63.4866 168.25C62.5106 167.658 61.7426 166.85 61.1826 165.826C60.6226 164.786 60.3426 163.626 60.3426 162.346C60.3426 161.05 60.6146 159.898 61.1586 158.89C61.7186 157.882 62.4706 157.09 63.4146 156.514C64.3746 155.922 65.4466 155.626 66.6306 155.626C67.5906 155.626 68.4386 155.802 69.1746 156.154C69.9266 156.49 70.5586 156.954 71.0706 157.546C71.5986 158.122 71.9986 158.786 72.2706 159.538C72.5586 160.274 72.7026 161.042 72.7026 161.842C72.7026 162.018 72.6866 162.218 72.6546 162.442C72.6386 162.65 72.6146 162.85 72.5826 163.042H61.9746V161.122H71.2866L70.2306 161.986C70.3746 161.154 70.2946 160.41 69.9906 159.754C69.6866 159.098 69.2386 158.578 68.6466 158.194C68.0546 157.81 67.3826 157.618 66.6306 157.618C65.8786 157.618 65.1906 157.81 64.5666 158.194C63.9426 158.578 63.4546 159.13 63.1026 159.85C62.7666 160.554 62.6306 161.394 62.6946 162.37C62.6306 163.314 62.7746 164.146 63.1266 164.866C63.4946 165.57 64.0066 166.122 64.6626 166.522C65.3346 166.906 66.0626 167.098 66.8466 167.098C67.7106 167.098 68.4386 166.898 69.0306 166.498C69.6226 166.098 70.1026 165.586 70.4706 164.962L72.3426 165.922C72.0866 166.514 71.6866 167.058 71.1426 167.554C70.6146 168.034 69.9826 168.418 69.2466 168.706C68.5266 168.994 67.7186 169.138 66.8226 169.138ZM75.6128 168.85V150.682H77.8448V163.138L76.9328 162.922L83.7968 155.914H86.6528L81.6848 161.122L86.9888 168.85H84.3488L79.5008 161.842L80.8928 161.77L77.1248 165.706L77.8448 164.074V168.85H75.6128ZM93.6276 169.138C92.3316 169.138 91.2036 168.818 90.2436 168.178C89.2836 167.538 88.6036 166.674 88.2036 165.586L89.9796 164.722C90.3476 165.49 90.8516 166.098 91.4916 166.546C92.1316 166.994 92.8436 167.218 93.6276 167.218C94.3316 167.218 94.9156 167.05 95.3796 166.714C95.8436 166.378 96.0756 165.938 96.0756 165.394C96.0756 165.01 95.9636 164.706 95.7396 164.482C95.5316 164.242 95.2756 164.058 94.9716 163.93C94.6676 163.786 94.3876 163.682 94.1316 163.618L92.1876 163.066C91.0196 162.73 90.1636 162.25 89.6196 161.626C89.0916 161.002 88.8276 160.274 88.8276 159.442C88.8276 158.674 89.0196 158.01 89.4036 157.45C89.8036 156.874 90.3396 156.426 91.0116 156.106C91.6996 155.786 92.4676 155.626 93.3156 155.626C94.4516 155.626 95.4676 155.914 96.3636 156.49C97.2756 157.066 97.9236 157.874 98.3076 158.914L96.4836 159.754C96.1956 159.082 95.7636 158.554 95.1876 158.17C94.6116 157.77 93.9636 157.57 93.2436 157.57C92.5876 157.57 92.0676 157.738 91.6836 158.074C91.2996 158.394 91.1076 158.802 91.1076 159.298C91.1076 159.666 91.2036 159.97 91.3956 160.21C91.5876 160.434 91.8196 160.61 92.0916 160.738C92.3636 160.85 92.6276 160.946 92.8836 161.026L94.9956 161.65C96.0516 161.954 96.8676 162.426 97.4436 163.066C98.0356 163.706 98.3316 164.474 98.3316 165.37C98.3316 166.09 98.1316 166.738 97.7316 167.314C97.3316 167.89 96.7796 168.338 96.0756 168.658C95.3716 168.978 94.5556 169.138 93.6276 169.138Z" fill="white"/>
<path d="M149.466 138.85V123.13H144.618V120.97H156.618V123.13H151.842V138.85H149.466ZM163.077 139.138C161.829 139.138 160.701 138.85 159.693 138.274C158.685 137.682 157.885 136.874 157.293 135.85C156.701 134.826 156.405 133.666 156.405 132.37C156.405 131.074 156.693 129.922 157.269 128.914C157.861 127.906 158.661 127.106 159.669 126.514C160.677 125.922 161.813 125.626 163.077 125.626C164.325 125.626 165.453 125.922 166.461 126.514C167.469 127.09 168.261 127.882 168.837 128.89C169.429 129.898 169.725 131.058 169.725 132.37C169.725 133.682 169.421 134.85 168.813 135.874C168.205 136.882 167.397 137.682 166.389 138.274C165.397 138.85 164.293 139.138 163.077 139.138ZM163.077 136.978C163.877 136.978 164.597 136.778 165.237 136.378C165.893 135.978 166.405 135.426 166.773 134.722C167.157 134.018 167.349 133.234 167.349 132.37C167.349 131.49 167.157 130.714 166.773 130.042C166.405 129.354 165.893 128.81 165.237 128.41C164.597 127.994 163.877 127.786 163.077 127.786C162.261 127.786 161.525 127.994 160.869 128.41C160.229 128.81 159.717 129.354 159.333 130.042C158.949 130.714 158.757 131.49 158.757 132.37C158.757 133.234 158.949 134.018 159.333 134.722C159.717 135.426 160.229 135.978 160.869 136.378C161.525 136.778 162.261 136.978 163.077 136.978ZM178.78 139.138C177.532 139.138 176.404 138.85 175.396 138.274C174.388 137.682 173.588 136.874 172.996 135.85C172.404 134.826 172.108 133.666 172.108 132.37C172.108 131.074 172.396 129.922 172.972 128.914C173.564 127.906 174.364 127.106 175.372 126.514C176.38 125.922 177.516 125.626 178.78 125.626C180.028 125.626 181.156 125.922 182.164 126.514C183.172 127.09 183.964 127.882 184.54 128.89C185.132 129.898 185.428 131.058 185.428 132.37C185.428 133.682 185.124 134.85 184.516 135.874C183.908 136.882 183.1 137.682 182.092 138.274C181.1 138.85 179.996 139.138 178.78 139.138ZM178.78 136.978C179.58 136.978 180.3 136.778 180.94 136.378C181.596 135.978 182.108 135.426 182.476 134.722C182.86 134.018 183.052 133.234 183.052 132.37C183.052 131.49 182.86 130.714 182.476 130.042C182.108 129.354 181.596 128.81 180.94 128.41C180.3 127.994 179.58 127.786 178.78 127.786C177.964 127.786 177.228 127.994 176.572 128.41C175.932 128.81 175.42 129.354 175.036 130.042C174.652 130.714 174.46 131.49 174.46 132.37C174.46 133.234 174.652 134.018 175.036 134.722C175.42 135.426 175.932 135.978 176.572 136.378C177.228 136.778 177.964 136.978 178.78 136.978ZM188.339 138.85V120.682H190.571V138.85H188.339ZM198.667 139.138C197.371 139.138 196.243 138.818 195.283 138.178C194.323 137.538 193.643 136.674 193.243 135.586L195.019 134.722C195.387 135.49 195.891 136.098 196.531 136.546C197.171 136.994 197.883 137.218 198.667 137.218C199.371 137.218 199.955 137.05 200.419 136.714C200.883 136.378 201.115 135.938 201.115 135.394C201.115 135.01 201.003 134.706 200.779 134.482C200.571 134.242 200.315 134.058 200.011 133.93C199.707 133.786 199.427 133.682 199.171 133.618L197.227 133.066C196.059 132.73 195.203 132.25 194.659 131.626C194.131 131.002 193.867 130.274 193.867 129.442C193.867 128.674 194.059 128.01 194.443 127.45C194.843 126.874 195.379 126.426 196.051 126.106C196.739 125.786 197.507 125.626 198.355 125.626C199.491 125.626 200.507 125.914 201.403 126.49C202.315 127.066 202.963 127.874 203.347 128.914L201.523 129.754C201.235 129.082 200.803 128.554 200.227 128.17C199.651 127.77 199.003 127.57 198.283 127.57C197.627 127.57 197.107 127.738 196.723 128.074C196.339 128.394 196.147 128.802 196.147 129.298C196.147 129.666 196.243 129.97 196.435 130.21C196.627 130.434 196.859 130.61 197.131 130.738C197.403 130.85 197.667 130.946 197.923 131.026L200.035 131.65C201.091 131.954 201.907 132.426 202.483 133.066C203.075 133.706 203.371 134.474 203.371 135.37C203.371 136.09 203.171 136.738 202.771 137.314C202.371 137.89 201.819 138.338 201.115 138.658C200.411 138.978 199.595 139.138 198.667 139.138Z" fill="#BBBBBB"/>
<path d="M146.346 168.85V150.97H157.674V153.13H148.698V158.914H156.834V161.074H148.698V168.85H146.346ZM160.074 168.85V155.914H162.306V168.85H160.074ZM160.074 153.85V150.97H162.306V153.85H160.074ZM171.937 174.13C171.025 174.13 170.177 173.986 169.393 173.698C168.625 173.41 167.961 173.01 167.401 172.498C166.857 172.002 166.441 171.418 166.153 170.746L168.241 169.786C168.465 170.394 168.889 170.906 169.513 171.322C170.153 171.754 170.953 171.97 171.913 171.97C172.649 171.97 173.313 171.826 173.905 171.538C174.513 171.266 174.993 170.85 175.345 170.29C175.697 169.746 175.873 169.082 175.873 168.298V165.394L176.281 165.826C175.833 166.706 175.185 167.378 174.337 167.842C173.505 168.306 172.585 168.538 171.577 168.538C170.361 168.538 169.273 168.258 168.313 167.698C167.353 167.122 166.601 166.346 166.057 165.37C165.513 164.378 165.241 163.282 165.241 162.082C165.241 160.866 165.513 159.77 166.057 158.794C166.601 157.818 167.345 157.05 168.289 156.49C169.249 155.914 170.337 155.626 171.553 155.626C172.561 155.626 173.473 155.858 174.289 156.322C175.121 156.77 175.785 157.394 176.281 158.194L175.945 158.794V155.914H178.129V168.298C178.129 169.418 177.865 170.418 177.337 171.298C176.809 172.178 176.073 172.866 175.129 173.362C174.201 173.874 173.137 174.13 171.937 174.13ZM171.769 166.378C172.537 166.378 173.225 166.186 173.833 165.802C174.457 165.418 174.953 164.906 175.321 164.266C175.689 163.61 175.873 162.882 175.873 162.082C175.873 161.298 175.689 160.578 175.321 159.922C174.953 159.266 174.457 158.746 173.833 158.362C173.225 157.978 172.537 157.786 171.769 157.786C170.985 157.786 170.273 157.978 169.633 158.362C168.993 158.746 168.489 159.266 168.121 159.922C167.769 160.562 167.593 161.282 167.593 162.082C167.593 162.882 167.769 163.61 168.121 164.266C168.489 164.906 168.985 165.418 169.609 165.802C170.249 166.186 170.969 166.378 171.769 166.378ZM181.589 168.85V155.914H183.773V158.554L183.461 158.146C183.781 157.33 184.293 156.706 184.997 156.274C185.701 155.842 186.493 155.626 187.373 155.626C188.381 155.626 189.285 155.906 190.085 156.466C190.901 157.026 191.461 157.762 191.765 158.674L191.141 158.698C191.477 157.69 192.045 156.93 192.845 156.418C193.645 155.89 194.533 155.626 195.509 155.626C196.405 155.626 197.213 155.834 197.933 156.25C198.669 156.666 199.253 157.242 199.685 157.978C200.117 158.714 200.333 159.546 200.333 160.474V168.85H198.077V161.194C198.077 160.474 197.949 159.866 197.693 159.37C197.437 158.874 197.085 158.49 196.637 158.218C196.205 157.93 195.693 157.786 195.101 157.786C194.525 157.786 194.005 157.93 193.541 158.218C193.093 158.49 192.733 158.882 192.461 159.394C192.205 159.89 192.077 160.49 192.077 161.194V168.85H189.821V161.194C189.821 160.474 189.693 159.866 189.437 159.37C189.181 158.874 188.829 158.49 188.381 158.218C187.949 157.93 187.437 157.786 186.845 157.786C186.269 157.786 185.749 157.93 185.285 158.218C184.837 158.49 184.477 158.882 184.205 159.394C183.949 159.89 183.821 160.49 183.821 161.194V168.85H181.589ZM207.295 169.138C206.447 169.138 205.695 168.986 205.039 168.682C204.399 168.362 203.895 167.93 203.527 167.386C203.159 166.826 202.975 166.186 202.975 165.466C202.975 164.778 203.119 164.162 203.407 163.618C203.711 163.058 204.175 162.586 204.799 162.202C205.439 161.818 206.239 161.546 207.199 161.386L211.999 160.594V162.466L207.703 163.186C206.871 163.33 206.263 163.594 205.879 163.978C205.511 164.362 205.327 164.834 205.327 165.394C205.327 165.922 205.535 166.362 205.951 166.714C206.383 167.066 206.919 167.242 207.559 167.242C208.375 167.242 209.079 167.074 209.671 166.738C210.279 166.386 210.751 165.914 211.087 165.322C211.439 164.73 211.615 164.074 211.615 163.354V160.066C211.615 159.362 211.351 158.794 210.823 158.362C210.311 157.914 209.631 157.69 208.783 157.69C208.047 157.69 207.391 157.882 206.815 158.266C206.255 158.634 205.839 159.13 205.567 159.754L203.623 158.746C203.863 158.154 204.247 157.626 204.775 157.162C205.303 156.682 205.919 156.306 206.623 156.034C207.327 155.762 208.063 155.626 208.831 155.626C209.823 155.626 210.695 155.818 211.447 156.202C212.199 156.57 212.783 157.09 213.199 157.762C213.631 158.418 213.847 159.186 213.847 160.066V168.85H211.663V166.402L212.071 166.546C211.799 167.058 211.431 167.506 210.967 167.89C210.503 168.274 209.959 168.578 209.335 168.802C208.711 169.026 208.031 169.138 207.295 169.138ZM217.692 172.186V171.106C218.188 170.978 218.564 170.73 218.82 170.362C219.076 169.994 219.22 169.49 219.252 168.85H218.172V165.97H220.5V168.01C220.5 169.162 220.26 170.09 219.78 170.794C219.316 171.498 218.62 171.962 217.692 172.186ZM237.124 169.138C235.86 169.138 234.692 168.914 233.62 168.466C232.564 168.002 231.636 167.354 230.836 166.522C230.052 165.69 229.444 164.714 229.012 163.594C228.58 162.474 228.364 161.25 228.364 159.922C228.364 158.578 228.58 157.346 229.012 156.226C229.444 155.106 230.052 154.13 230.836 153.298C231.62 152.466 232.548 151.826 233.62 151.378C234.692 150.914 235.86 150.682 237.124 150.682C238.356 150.682 239.46 150.898 240.436 151.33C241.428 151.762 242.26 152.322 242.932 153.01C243.62 153.698 244.108 154.434 244.396 155.218L242.236 156.202C241.82 155.21 241.172 154.41 240.292 153.802C239.412 153.178 238.356 152.866 237.124 152.866C235.876 152.866 234.764 153.162 233.788 153.754C232.828 154.346 232.076 155.17 231.532 156.226C230.988 157.282 230.716 158.514 230.716 159.922C230.716 161.314 230.988 162.538 231.532 163.594C232.076 164.65 232.828 165.474 233.788 166.066C234.764 166.658 235.876 166.954 237.124 166.954C238.356 166.954 239.412 166.65 240.292 166.042C241.172 165.418 241.82 164.61 242.236 163.618L244.396 164.602C244.108 165.386 243.62 166.122 242.932 166.81C242.26 167.498 241.428 168.058 240.436 168.49C239.46 168.922 238.356 169.138 237.124 169.138ZM247.332 168.85V150.682H249.564V168.85H247.332ZM256.819 169.138C255.971 169.138 255.219 168.986 254.563 168.682C253.923 168.362 253.419 167.93 253.051 167.386C252.683 166.826 252.499 166.186 252.499 165.466C252.499 164.778 252.643 164.162 252.931 163.618C253.235 163.058 253.699 162.586 254.323 162.202C254.963 161.818 255.763 161.546 256.723 161.386L261.523 160.594V162.466L257.227 163.186C256.395 163.33 255.787 163.594 255.403 163.978C255.035 164.362 254.851 164.834 254.851 165.394C254.851 165.922 255.059 166.362 255.475 166.714C255.907 167.066 256.443 167.242 257.083 167.242C257.899 167.242 258.603 167.074 259.195 166.738C259.803 166.386 260.275 165.914 260.611 165.322C260.963 164.73 261.139 164.074 261.139 163.354V160.066C261.139 159.362 260.875 158.794 260.347 158.362C259.835 157.914 259.155 157.69 258.307 157.69C257.571 157.69 256.915 157.882 256.339 158.266C255.779 158.634 255.363 159.13 255.091 159.754L253.147 158.746C253.387 158.154 253.771 157.626 254.299 157.162C254.827 156.682 255.443 156.306 256.147 156.034C256.851 155.762 257.587 155.626 258.355 155.626C259.347 155.626 260.219 155.818 260.971 156.202C261.723 156.57 262.307 157.09 262.723 157.762C263.155 158.418 263.371 159.186 263.371 160.066V168.85H261.187V166.402L261.595 166.546C261.323 167.058 260.955 167.506 260.491 167.89C260.027 168.274 259.483 168.578 258.859 168.802C258.235 169.026 257.555 169.138 256.819 169.138ZM271.416 169.138C270.488 169.138 269.648 168.922 268.896 168.49C268.16 168.058 267.584 167.458 267.168 166.69C266.768 165.906 266.568 165.01 266.568 164.002V155.914H268.8V163.762C268.8 164.402 268.928 164.962 269.184 165.442C269.456 165.922 269.824 166.298 270.288 166.57C270.768 166.842 271.312 166.978 271.92 166.978C272.528 166.978 273.064 166.842 273.528 166.57C274.008 166.298 274.376 165.906 274.632 165.394C274.904 164.882 275.04 164.274 275.04 163.57V155.914H277.296V168.85H275.112V166.33L275.472 166.546C275.168 167.362 274.648 168.002 273.912 168.466C273.192 168.914 272.36 169.138 271.416 169.138ZM286.633 169.138C285.417 169.138 284.321 168.842 283.345 168.25C282.385 167.658 281.625 166.85 281.065 165.826C280.505 164.802 280.225 163.658 280.225 162.394C280.225 161.098 280.505 159.946 281.065 158.938C281.625 157.914 282.385 157.106 283.345 156.514C284.321 155.922 285.417 155.626 286.633 155.626C287.705 155.626 288.657 155.858 289.489 156.322C290.321 156.77 290.977 157.378 291.457 158.146L291.097 158.698V150.682H293.353V168.85H291.169V166.09L291.457 166.474C291.009 167.322 290.353 167.978 289.489 168.442C288.641 168.906 287.689 169.138 286.633 169.138ZM286.825 166.978C287.641 166.978 288.369 166.778 289.009 166.378C289.649 165.978 290.153 165.434 290.521 164.746C290.905 164.042 291.097 163.258 291.097 162.394C291.097 161.514 290.905 160.73 290.521 160.042C290.153 159.338 289.649 158.786 289.009 158.386C288.369 157.986 287.641 157.786 286.825 157.786C286.025 157.786 285.297 157.994 284.641 158.41C284.001 158.81 283.497 159.354 283.129 160.042C282.761 160.714 282.577 161.498 282.577 162.394C282.577 163.258 282.761 164.042 283.129 164.746C283.497 165.434 284.001 165.978 284.641 166.378C285.281 166.778 286.009 166.978 286.825 166.978ZM302.76 169.138C301.512 169.138 300.4 168.842 299.424 168.25C298.448 167.658 297.68 166.85 297.12 165.826C296.56 164.786 296.28 163.626 296.28 162.346C296.28 161.05 296.552 159.898 297.096 158.89C297.656 157.882 298.408 157.09 299.352 156.514C300.312 155.922 301.384 155.626 302.568 155.626C303.528 155.626 304.376 155.802 305.112 156.154C305.864 156.49 306.496 156.954 307.008 157.546C307.536 158.122 307.936 158.786 308.208 159.538C308.496 160.274 308.64 161.042 308.64 161.842C308.64 162.018 308.624 162.218 308.592 162.442C308.576 162.65 308.552 162.85 308.52 163.042H297.912V161.122H307.224L306.168 161.986C306.312 161.154 306.232 160.41 305.928 159.754C305.624 159.098 305.176 158.578 304.584 158.194C303.992 157.81 303.32 157.618 302.568 157.618C301.816 157.618 301.128 157.81 300.504 158.194C299.88 158.578 299.392 159.13 299.04 159.85C298.704 160.554 298.568 161.394 298.632 162.37C298.568 163.314 298.712 164.146 299.064 164.866C299.432 165.57 299.944 166.122 300.6 166.522C301.272 166.906 302 167.098 302.784 167.098C303.648 167.098 304.376 166.898 304.968 166.498C305.56 166.098 306.04 165.586 306.408 164.962L308.28 165.922C308.024 166.514 307.624 167.058 307.08 167.554C306.552 168.034 305.92 168.418 305.184 168.706C304.464 168.994 303.656 169.138 302.76 169.138ZM311.934 172.186V171.106C312.43 170.978 312.806 170.73 313.062 170.362C313.318 169.994 313.462 169.49 313.494 168.85H312.414V165.97H314.742V168.01C314.742 169.162 314.502 170.09 314.022 170.794C313.558 171.498 312.862 171.962 311.934 172.186ZM323.135 168.85V150.97H325.487V166.69H333.335V168.85H323.135ZM341.858 169.138C340.61 169.138 339.482 168.85 338.474 168.274C337.466 167.682 336.666 166.874 336.074 165.85C335.482 164.826 335.186 163.666 335.186 162.37C335.186 161.074 335.474 159.922 336.05 158.914C336.642 157.906 337.442 157.106 338.45 156.514C339.458 155.922 340.594 155.626 341.858 155.626C343.106 155.626 344.234 155.922 345.242 156.514C346.25 157.09 347.042 157.882 347.618 158.89C348.21 159.898 348.506 161.058 348.506 162.37C348.506 163.682 348.202 164.85 347.594 165.874C346.986 166.882 346.178 167.682 345.17 168.274C344.178 168.85 343.074 169.138 341.858 169.138ZM341.858 166.978C342.658 166.978 343.378 166.778 344.018 166.378C344.674 165.978 345.186 165.426 345.554 164.722C345.938 164.018 346.13 163.234 346.13 162.37C346.13 161.49 345.938 160.714 345.554 160.042C345.186 159.354 344.674 158.81 344.018 158.41C343.378 157.994 342.658 157.786 341.858 157.786C341.042 157.786 340.306 157.994 339.65 158.41C339.01 158.81 338.498 159.354 338.114 160.042C337.73 160.714 337.538 161.49 337.538 162.37C337.538 163.234 337.73 164.018 338.114 164.722C338.498 165.426 339.01 165.978 339.65 166.378C340.306 166.778 341.042 166.978 341.858 166.978ZM354.783 168.85L349.719 155.914H352.215L356.271 166.858H355.407L359.487 155.914H361.983L356.895 168.85H354.783ZM367.303 169.138C366.455 169.138 365.703 168.986 365.047 168.682C364.407 168.362 363.903 167.93 363.535 167.386C363.167 166.826 362.983 166.186 362.983 165.466C362.983 164.778 363.127 164.162 363.415 163.618C363.719 163.058 364.183 162.586 364.807 162.202C365.447 161.818 366.247 161.546 367.207 161.386L372.007 160.594V162.466L367.711 163.186C366.879 163.33 366.271 163.594 365.887 163.978C365.519 164.362 365.335 164.834 365.335 165.394C365.335 165.922 365.543 166.362 365.959 166.714C366.391 167.066 366.927 167.242 367.567 167.242C368.383 167.242 369.087 167.074 369.679 166.738C370.287 166.386 370.759 165.914 371.095 165.322C371.447 164.73 371.623 164.074 371.623 163.354V160.066C371.623 159.362 371.359 158.794 370.831 158.362C370.319 157.914 369.639 157.69 368.791 157.69C368.055 157.69 367.399 157.882 366.823 158.266C366.263 158.634 365.847 159.13 365.575 159.754L363.631 158.746C363.871 158.154 364.255 157.626 364.783 157.162C365.311 156.682 365.927 156.306 366.631 156.034C367.335 155.762 368.071 155.626 368.839 155.626C369.831 155.626 370.703 155.818 371.455 156.202C372.207 156.57 372.791 157.09 373.207 157.762C373.639 158.418 373.855 159.186 373.855 160.066V168.85H371.671V166.402L372.079 166.546C371.807 167.058 371.439 167.506 370.975 167.89C370.511 168.274 369.967 168.578 369.343 168.802C368.719 169.026 368.039 169.138 367.303 169.138ZM384.012 169.138C382.972 169.138 382.02 168.906 381.156 168.442C380.308 167.978 379.652 167.322 379.188 166.474L379.5 166.09V168.85H377.316V150.682H379.548V158.698L379.212 158.146C379.692 157.378 380.348 156.77 381.18 156.322C382.012 155.858 382.964 155.626 384.036 155.626C385.252 155.626 386.34 155.922 387.3 156.514C388.276 157.106 389.044 157.914 389.604 158.938C390.164 159.946 390.444 161.098 390.444 162.394C390.444 163.658 390.164 164.802 389.604 165.826C389.044 166.85 388.276 167.658 387.3 168.25C386.34 168.842 385.244 169.138 384.012 169.138ZM383.844 166.978C384.66 166.978 385.388 166.778 386.028 166.378C386.668 165.978 387.164 165.434 387.516 164.746C387.884 164.042 388.068 163.258 388.068 162.394C388.068 161.498 387.884 160.714 387.516 160.042C387.164 159.354 386.668 158.81 386.028 158.41C385.388 157.994 384.66 157.786 383.844 157.786C383.028 157.786 382.292 157.986 381.636 158.386C380.996 158.786 380.484 159.338 380.1 160.042C379.732 160.73 379.548 161.514 379.548 162.394C379.548 163.258 379.732 164.042 380.1 164.746C380.484 165.434 380.996 165.978 381.636 166.378C382.292 166.778 383.028 166.978 383.844 166.978ZM393.371 168.85V150.682H395.603V168.85H393.371ZM405.018 169.138C403.77 169.138 402.658 168.842 401.682 168.25C400.706 167.658 399.938 166.85 399.378 165.826C398.818 164.786 398.538 163.626 398.538 162.346C398.538 161.05 398.81 159.898 399.354 158.89C399.914 157.882 400.666 157.09 401.61 156.514C402.57 155.922 403.642 155.626 404.826 155.626C405.786 155.626 406.634 155.802 407.37 156.154C408.122 156.49 408.754 156.954 409.266 157.546C409.794 158.122 410.194 158.786 410.466 159.538C410.754 160.274 410.898 161.042 410.898 161.842C410.898 162.018 410.882 162.218 410.85 162.442C410.834 162.65 410.81 162.85 410.778 163.042H400.17V161.122H409.482L408.426 161.986C408.57 161.154 408.49 160.41 408.186 159.754C407.882 159.098 407.434 158.578 406.842 158.194C406.25 157.81 405.578 157.618 404.826 157.618C404.074 157.618 403.386 157.81 402.762 158.194C402.138 158.578 401.65 159.13 401.298 159.85C400.962 160.554 400.826 161.394 400.89 162.37C400.826 163.314 400.97 164.146 401.322 164.866C401.69 165.57 402.202 166.122 402.858 166.522C403.53 166.906 404.258 167.098 405.042 167.098C405.906 167.098 406.634 166.898 407.226 166.498C407.818 166.098 408.298 165.586 408.666 164.962L410.538 165.922C410.282 166.514 409.882 167.058 409.338 167.554C408.81 168.034 408.178 168.418 407.442 168.706C406.722 168.994 405.914 169.138 405.018 169.138Z" fill="white"/>
<path d="M461.466 138.85V123.13H456.618V120.97H468.618V123.13H463.842V138.85H461.466ZM474.885 139.138C473.637 139.138 472.525 138.842 471.549 138.25C470.573 137.658 469.805 136.85 469.245 135.826C468.685 134.786 468.405 133.626 468.405 132.346C468.405 131.05 468.677 129.898 469.221 128.89C469.781 127.882 470.533 127.09 471.477 126.514C472.437 125.922 473.509 125.626 474.693 125.626C475.653 125.626 476.501 125.802 477.237 126.154C477.989 126.49 478.621 126.954 479.133 127.546C479.661 128.122 480.061 128.786 480.333 129.538C480.621 130.274 480.765 131.042 480.765 131.842C480.765 132.018 480.749 132.218 480.717 132.442C480.701 132.65 480.677 132.85 480.645 133.042H470.037V131.122H479.349L478.293 131.986C478.437 131.154 478.357 130.41 478.053 129.754C477.749 129.098 477.301 128.578 476.709 128.194C476.117 127.81 475.445 127.618 474.693 127.618C473.941 127.618 473.253 127.81 472.629 128.194C472.005 128.578 471.517 129.13 471.165 129.85C470.829 130.554 470.693 131.394 470.757 132.37C470.693 133.314 470.837 134.146 471.189 134.866C471.557 135.57 472.069 136.122 472.725 136.522C473.397 136.906 474.125 137.098 474.909 137.098C475.773 137.098 476.501 136.898 477.093 136.498C477.685 136.098 478.165 135.586 478.533 134.962L480.405 135.922C480.149 136.514 479.749 137.058 479.205 137.554C478.677 138.034 478.045 138.418 477.309 138.706C476.589 138.994 475.781 139.138 474.885 139.138ZM487.303 139.138C486.455 139.138 485.703 138.986 485.047 138.682C484.407 138.362 483.903 137.93 483.535 137.386C483.167 136.826 482.983 136.186 482.983 135.466C482.983 134.778 483.127 134.162 483.415 133.618C483.719 133.058 484.183 132.586 484.807 132.202C485.447 131.818 486.247 131.546 487.207 131.386L492.007 130.594V132.466L487.711 133.186C486.879 133.33 486.271 133.594 485.887 133.978C485.519 134.362 485.335 134.834 485.335 135.394C485.335 135.922 485.543 136.362 485.959 136.714C486.391 137.066 486.927 137.242 487.567 137.242C488.383 137.242 489.087 137.074 489.679 136.738C490.287 136.386 490.759 135.914 491.095 135.322C491.447 134.73 491.623 134.074 491.623 133.354V130.066C491.623 129.362 491.359 128.794 490.831 128.362C490.319 127.914 489.639 127.69 488.791 127.69C488.055 127.69 487.399 127.882 486.823 128.266C486.263 128.634 485.847 129.13 485.575 129.754L483.631 128.746C483.871 128.154 484.255 127.626 484.783 127.162C485.311 126.682 485.927 126.306 486.631 126.034C487.335 125.762 488.071 125.626 488.839 125.626C489.831 125.626 490.703 125.818 491.455 126.202C492.207 126.57 492.791 127.09 493.207 127.762C493.639 128.418 493.855 129.186 493.855 130.066V138.85H491.671V136.402L492.079 136.546C491.807 137.058 491.439 137.506 490.975 137.89C490.511 138.274 489.967 138.578 489.343 138.802C488.719 139.026 488.039 139.138 487.303 139.138ZM497.316 138.85V125.914H499.5V128.554L499.188 128.146C499.508 127.33 500.02 126.706 500.724 126.274C501.428 125.842 502.22 125.626 503.1 125.626C504.108 125.626 505.012 125.906 505.812 126.466C506.628 127.026 507.188 127.762 507.492 128.674L506.868 128.698C507.204 127.69 507.772 126.93 508.572 126.418C509.372 125.89 510.26 125.626 511.236 125.626C512.132 125.626 512.94 125.834 513.66 126.25C514.396 126.666 514.98 127.242 515.412 127.978C515.844 128.714 516.06 129.546 516.06 130.474V138.85H513.804V131.194C513.804 130.474 513.676 129.866 513.42 129.37C513.164 128.874 512.812 128.49 512.364 128.218C511.932 127.93 511.42 127.786 510.828 127.786C510.252 127.786 509.732 127.93 509.268 128.218C508.82 128.49 508.46 128.882 508.188 129.394C507.932 129.89 507.804 130.49 507.804 131.194V138.85H505.548V131.194C505.548 130.474 505.42 129.866 505.164 129.37C504.908 128.874 504.556 128.49 504.108 128.218C503.676 127.93 503.164 127.786 502.572 127.786C501.996 127.786 501.476 127.93 501.012 128.218C500.564 128.49 500.204 128.882 499.932 129.394C499.676 129.89 499.548 130.49 499.548 131.194V138.85H497.316Z" fill="#BBBBBB"/>
<path d="M458.346 168.85V150.97H460.506L467.202 160.498H466.098L472.746 150.97H474.906V168.85H472.53V153.946L473.37 154.21L466.722 163.57H466.53L459.954 154.21L460.698 153.946V168.85H458.346ZM484.565 169.138C483.317 169.138 482.205 168.842 481.229 168.25C480.253 167.658 479.485 166.85 478.925 165.826C478.365 164.786 478.085 163.626 478.085 162.346C478.085 161.05 478.357 159.898 478.901 158.89C479.461 157.882 480.213 157.09 481.157 156.514C482.117 155.922 483.189 155.626 484.373 155.626C485.333 155.626 486.181 155.802 486.917 156.154C487.669 156.49 488.301 156.954 488.813 157.546C489.341 158.122 489.741 158.786 490.013 159.538C490.301 160.274 490.445 161.042 490.445 161.842C490.445 162.018 490.429 162.218 490.397 162.442C490.381 162.65 490.357 162.85 490.325 163.042H479.717V161.122H489.029L487.973 161.986C488.117 161.154 488.037 160.41 487.733 159.754C487.429 159.098 486.981 158.578 486.389 158.194C485.797 157.81 485.125 157.618 484.373 157.618C483.621 157.618 482.933 157.81 482.309 158.194C481.685 158.578 481.197 159.13 480.845 159.85C480.509 160.554 480.373 161.394 480.437 162.37C480.373 163.314 480.517 164.146 480.869 164.866C481.237 165.57 481.749 166.122 482.405 166.522C483.077 166.906 483.805 167.098 484.589 167.098C485.453 167.098 486.181 166.898 486.773 166.498C487.365 166.098 487.845 165.586 488.213 164.962L490.085 165.922C489.829 166.514 489.429 167.058 488.885 167.554C488.357 168.034 487.725 168.418 486.989 168.706C486.269 168.994 485.461 169.138 484.565 169.138ZM501.007 172.45C499.711 170.962 498.727 169.314 498.055 167.506C497.383 165.682 497.047 163.746 497.047 161.698C497.047 159.634 497.383 157.698 498.055 155.89C498.727 154.082 499.711 152.442 501.007 150.97H502.927C501.775 152.602 500.903 154.33 500.311 156.154C499.719 157.962 499.423 159.81 499.423 161.698C499.423 163.586 499.719 165.442 500.311 167.266C500.903 169.074 501.775 170.802 502.927 172.45H501.007ZM511.141 169.138C509.925 169.138 508.829 168.842 507.853 168.25C506.893 167.658 506.133 166.85 505.573 165.826C505.013 164.802 504.733 163.658 504.733 162.394C504.733 161.098 505.013 159.946 505.573 158.938C506.133 157.914 506.893 157.106 507.853 156.514C508.829 155.922 509.925 155.626 511.141 155.626C512.213 155.626 513.165 155.858 513.997 156.322C514.829 156.77 515.485 157.378 515.965 158.146L515.605 158.698V150.682H517.861V168.85H515.677V166.09L515.965 166.474C515.517 167.322 514.861 167.978 513.997 168.442C513.149 168.906 512.197 169.138 511.141 169.138ZM511.333 166.978C512.149 166.978 512.877 166.778 513.517 166.378C514.157 165.978 514.661 165.434 515.029 164.746C515.413 164.042 515.605 163.258 515.605 162.394C515.605 161.514 515.413 160.73 515.029 160.042C514.661 159.338 514.157 158.786 513.517 158.386C512.877 157.986 512.149 157.786 511.333 157.786C510.533 157.786 509.805 157.994 509.149 158.41C508.509 158.81 508.005 159.354 507.637 160.042C507.269 160.714 507.085 161.498 507.085 162.394C507.085 163.258 507.269 164.042 507.637 164.746C508.005 165.434 508.509 165.978 509.149 166.378C509.789 166.778 510.517 166.978 511.333 166.978ZM527.268 169.138C526.02 169.138 524.908 168.842 523.932 168.25C522.956 167.658 522.188 166.85 521.628 165.826C521.068 164.786 520.788 163.626 520.788 162.346C520.788 161.05 521.06 159.898 521.604 158.89C522.164 157.882 522.916 157.09 523.86 156.514C524.82 155.922 525.892 155.626 527.076 155.626C528.036 155.626 528.884 155.802 529.62 156.154C530.372 156.49 531.004 156.954 531.516 157.546C532.044 158.122 532.444 158.786 532.716 159.538C533.004 160.274 533.148 161.042 533.148 161.842C533.148 162.018 533.132 162.218 533.1 162.442C533.084 162.65 533.06 162.85 533.028 163.042H522.42V161.122H531.732L530.676 161.986C530.82 161.154 530.74 160.41 530.436 159.754C530.132 159.098 529.684 158.578 529.092 158.194C528.5 157.81 527.828 157.618 527.076 157.618C526.324 157.618 525.636 157.81 525.012 158.194C524.388 158.578 523.9 159.13 523.548 159.85C523.212 160.554 523.076 161.394 523.14 162.37C523.076 163.314 523.22 164.146 523.572 164.866C523.94 165.57 524.452 166.122 525.108 166.522C525.78 166.906 526.508 167.098 527.292 167.098C528.156 167.098 528.884 166.898 529.476 166.498C530.068 166.098 530.548 165.586 530.916 164.962L532.788 165.922C532.532 166.514 532.132 167.058 531.588 167.554C531.06 168.034 530.428 168.418 529.692 168.706C528.972 168.994 528.164 169.138 527.268 169.138ZM540.69 169.138C539.394 169.138 538.266 168.818 537.306 168.178C536.346 167.538 535.666 166.674 535.266 165.586L537.042 164.722C537.41 165.49 537.914 166.098 538.554 166.546C539.194 166.994 539.906 167.218 540.69 167.218C541.394 167.218 541.978 167.05 542.442 166.714C542.906 166.378 543.138 165.938 543.138 165.394C543.138 165.01 543.026 164.706 542.802 164.482C542.594 164.242 542.338 164.058 542.034 163.93C541.73 163.786 541.45 163.682 541.194 163.618L539.25 163.066C538.082 162.73 537.226 162.25 536.682 161.626C536.154 161.002 535.89 160.274 535.89 159.442C535.89 158.674 536.082 158.01 536.466 157.45C536.866 156.874 537.402 156.426 538.074 156.106C538.762 155.786 539.53 155.626 540.378 155.626C541.514 155.626 542.53 155.914 543.426 156.49C544.338 157.066 544.986 157.874 545.37 158.914L543.546 159.754C543.258 159.082 542.826 158.554 542.25 158.17C541.674 157.77 541.026 157.57 540.306 157.57C539.65 157.57 539.13 157.738 538.746 158.074C538.362 158.394 538.17 158.802 538.17 159.298C538.17 159.666 538.266 159.97 538.458 160.21C538.65 160.434 538.882 160.61 539.154 160.738C539.426 160.85 539.69 160.946 539.946 161.026L542.058 161.65C543.114 161.954 543.93 162.426 544.506 163.066C545.098 163.706 545.394 164.474 545.394 165.37C545.394 166.09 545.194 166.738 544.794 167.314C544.394 167.89 543.842 168.338 543.138 168.658C542.434 168.978 541.618 169.138 540.69 169.138ZM548.316 168.85V155.914H550.548V168.85H548.316ZM548.316 153.85V150.97H550.548V153.85H548.316ZM560.179 174.13C559.267 174.13 558.419 173.986 557.635 173.698C556.867 173.41 556.203 173.01 555.643 172.498C555.099 172.002 554.683 171.418 554.395 170.746L556.483 169.786C556.707 170.394 557.131 170.906 557.755 171.322C558.395 171.754 559.195 171.97 560.155 171.97C560.891 171.97 561.555 171.826 562.147 171.538C562.755 171.266 563.235 170.85 563.587 170.29C563.939 169.746 564.115 169.082 564.115 168.298V165.394L564.523 165.826C564.075 166.706 563.427 167.378 562.579 167.842C561.747 168.306 560.827 168.538 559.819 168.538C558.603 168.538 557.515 168.258 556.555 167.698C555.595 167.122 554.843 166.346 554.299 165.37C553.755 164.378 553.483 163.282 553.483 162.082C553.483 160.866 553.755 159.77 554.299 158.794C554.843 157.818 555.587 157.05 556.531 156.49C557.491 155.914 558.579 155.626 559.795 155.626C560.803 155.626 561.715 155.858 562.531 156.322C563.363 156.77 564.027 157.394 564.523 158.194L564.187 158.794V155.914H566.371V168.298C566.371 169.418 566.107 170.418 565.579 171.298C565.051 172.178 564.315 172.866 563.371 173.362C562.443 173.874 561.379 174.13 560.179 174.13ZM560.011 166.378C560.779 166.378 561.467 166.186 562.075 165.802C562.699 165.418 563.195 164.906 563.563 164.266C563.931 163.61 564.115 162.882 564.115 162.082C564.115 161.298 563.931 160.578 563.563 159.922C563.195 159.266 562.699 158.746 562.075 158.362C561.467 157.978 560.779 157.786 560.011 157.786C559.227 157.786 558.515 157.978 557.875 158.362C557.235 158.746 556.731 159.266 556.363 159.922C556.011 160.562 555.835 161.282 555.835 162.082C555.835 162.882 556.011 163.61 556.363 164.266C556.731 164.906 557.227 165.418 557.851 165.802C558.491 166.186 559.211 166.378 560.011 166.378ZM569.832 168.85V155.914H572.016V158.434L571.656 158.218C571.976 157.402 572.488 156.77 573.192 156.322C573.912 155.858 574.752 155.626 575.712 155.626C576.64 155.626 577.464 155.834 578.184 156.25C578.92 156.666 579.496 157.242 579.912 157.978C580.344 158.714 580.56 159.546 580.56 160.474V168.85H578.304V161.194C578.304 160.474 578.176 159.866 577.92 159.37C577.664 158.874 577.296 158.49 576.816 158.218C576.352 157.93 575.816 157.786 575.208 157.786C574.6 157.786 574.056 157.93 573.576 158.218C573.112 158.49 572.744 158.882 572.472 159.394C572.2 159.89 572.064 160.49 572.064 161.194V168.85H569.832ZM591.694 169.138C590.846 169.138 590.094 168.986 589.438 168.682C588.798 168.362 588.294 167.93 587.926 167.386C587.558 166.826 587.374 166.186 587.374 165.466C587.374 164.778 587.518 164.162 587.806 163.618C588.11 163.058 588.574 162.586 589.198 162.202C589.838 161.818 590.638 161.546 591.598 161.386L596.398 160.594V162.466L592.102 163.186C591.27 163.33 590.662 163.594 590.278 163.978C589.91 164.362 589.726 164.834 589.726 165.394C589.726 165.922 589.934 166.362 590.35 166.714C590.782 167.066 591.318 167.242 591.958 167.242C592.774 167.242 593.478 167.074 594.07 166.738C594.678 166.386 595.15 165.914 595.486 165.322C595.838 164.73 596.014 164.074 596.014 163.354V160.066C596.014 159.362 595.75 158.794 595.222 158.362C594.71 157.914 594.03 157.69 593.182 157.69C592.446 157.69 591.79 157.882 591.214 158.266C590.654 158.634 590.238 159.13 589.966 159.754L588.022 158.746C588.262 158.154 588.646 157.626 589.174 157.162C589.702 156.682 590.318 156.306 591.022 156.034C591.726 155.762 592.462 155.626 593.23 155.626C594.222 155.626 595.094 155.818 595.846 156.202C596.598 156.57 597.182 157.09 597.598 157.762C598.03 158.418 598.246 159.186 598.246 160.066V168.85H596.062V166.402L596.47 166.546C596.198 167.058 595.83 167.506 595.366 167.89C594.902 168.274 594.358 168.578 593.734 168.802C593.11 169.026 592.43 169.138 591.694 169.138ZM601.707 168.85V155.914H603.891V158.434L603.531 158.218C603.851 157.402 604.363 156.77 605.067 156.322C605.787 155.858 606.627 155.626 607.587 155.626C608.515 155.626 609.339 155.834 610.059 156.25C610.795 156.666 611.371 157.242 611.787 157.978C612.219 158.714 612.435 159.546 612.435 160.474V168.85H610.179V161.194C610.179 160.474 610.051 159.866 609.795 159.37C609.539 158.874 609.171 158.49 608.691 158.218C608.227 157.93 607.691 157.786 607.083 157.786C606.475 157.786 605.931 157.93 605.451 158.218C604.987 158.49 604.619 158.882 604.347 159.394C604.075 159.89 603.939 160.49 603.939 161.194V168.85H601.707ZM621.508 169.138C620.292 169.138 619.196 168.842 618.22 168.25C617.26 167.658 616.5 166.85 615.94 165.826C615.38 164.802 615.1 163.658 615.1 162.394C615.1 161.098 615.38 159.946 615.94 158.938C616.5 157.914 617.26 157.106 618.22 156.514C619.196 155.922 620.292 155.626 621.508 155.626C622.58 155.626 623.532 155.858 624.364 156.322C625.196 156.77 625.852 157.378 626.332 158.146L625.972 158.698V150.682H628.228V168.85H626.044V166.09L626.332 166.474C625.884 167.322 625.228 167.978 624.364 168.442C623.516 168.906 622.564 169.138 621.508 169.138ZM621.7 166.978C622.516 166.978 623.244 166.778 623.884 166.378C624.524 165.978 625.028 165.434 625.396 164.746C625.78 164.042 625.972 163.258 625.972 162.394C625.972 161.514 625.78 160.73 625.396 160.042C625.028 159.338 624.524 158.786 623.884 158.386C623.244 157.986 622.516 157.786 621.7 157.786C620.9 157.786 620.172 157.994 619.516 158.41C618.876 158.81 618.372 159.354 618.004 160.042C617.636 160.714 617.452 161.498 617.452 162.394C617.452 163.258 617.636 164.042 618.004 164.746C618.372 165.434 618.876 165.978 619.516 166.378C620.156 166.778 620.884 166.978 621.7 166.978ZM641.712 169.138C640.496 169.138 639.4 168.842 638.424 168.25C637.464 167.658 636.704 166.85 636.144 165.826C635.584 164.802 635.304 163.658 635.304 162.394C635.304 161.098 635.584 159.946 636.144 158.938C636.704 157.914 637.464 157.106 638.424 156.514C639.4 155.922 640.496 155.626 641.712 155.626C642.784 155.626 643.736 155.858 644.568 156.322C645.4 156.77 646.056 157.378 646.536 158.146L646.176 158.698V150.682H648.432V168.85H646.248V166.09L646.536 166.474C646.088 167.322 645.432 167.978 644.568 168.442C643.72 168.906 642.768 169.138 641.712 169.138ZM641.904 166.978C642.72 166.978 643.448 166.778 644.088 166.378C644.728 165.978 645.232 165.434 645.6 164.746C645.984 164.042 646.176 163.258 646.176 162.394C646.176 161.514 645.984 160.73 645.6 160.042C645.232 159.338 644.728 158.786 644.088 158.386C643.448 157.986 642.72 157.786 641.904 157.786C641.104 157.786 640.376 157.994 639.72 158.41C639.08 158.81 638.576 159.354 638.208 160.042C637.84 160.714 637.656 161.498 637.656 162.394C637.656 163.258 637.84 164.042 638.208 164.746C638.576 165.434 639.08 165.978 639.72 166.378C640.36 166.778 641.088 166.978 641.904 166.978ZM657.838 169.138C656.59 169.138 655.478 168.842 654.502 168.25C653.526 167.658 652.758 166.85 652.198 165.826C651.638 164.786 651.358 163.626 651.358 162.346C651.358 161.05 651.63 159.898 652.174 158.89C652.734 157.882 653.486 157.09 654.43 156.514C655.39 155.922 656.462 155.626 657.646 155.626C658.606 155.626 659.454 155.802 660.19 156.154C660.942 156.49 661.574 156.954 662.086 157.546C662.614 158.122 663.014 158.786 663.286 159.538C663.574 160.274 663.718 161.042 663.718 161.842C663.718 162.018 663.702 162.218 663.67 162.442C663.654 162.65 663.63 162.85 663.598 163.042H652.99V161.122H662.302L661.246 161.986C661.39 161.154 661.31 160.41 661.006 159.754C660.702 159.098 660.254 158.578 659.662 158.194C659.07 157.81 658.398 157.618 657.646 157.618C656.894 157.618 656.206 157.81 655.582 158.194C654.958 158.578 654.47 159.13 654.118 159.85C653.782 160.554 653.646 161.394 653.71 162.37C653.646 163.314 653.79 164.146 654.142 164.866C654.51 165.57 655.022 166.122 655.678 166.522C656.35 166.906 657.078 167.098 657.862 167.098C658.726 167.098 659.454 166.898 660.046 166.498C660.638 166.098 661.118 165.586 661.486 164.962L663.358 165.922C663.102 166.514 662.702 167.058 662.158 167.554C661.63 168.034 660.998 168.418 660.262 168.706C659.542 168.994 658.734 169.138 657.838 169.138ZM669.994 168.85L664.93 155.914H667.426L671.482 166.858H670.618L674.698 155.914H677.194L672.106 168.85H669.994ZM684.909 169.138C683.661 169.138 682.549 168.842 681.573 168.25C680.597 167.658 679.829 166.85 679.269 165.826C678.709 164.786 678.429 163.626 678.429 162.346C678.429 161.05 678.701 159.898 679.245 158.89C679.805 157.882 680.557 157.09 681.501 156.514C682.461 155.922 683.533 155.626 684.717 155.626C685.677 155.626 686.525 155.802 687.261 156.154C688.013 156.49 688.645 156.954 689.157 157.546C689.685 158.122 690.085 158.786 690.357 159.538C690.645 160.274 690.789 161.042 690.789 161.842C690.789 162.018 690.773 162.218 690.741 162.442C690.725 162.65 690.701 162.85 690.669 163.042H680.061V161.122H689.373L688.317 161.986C688.461 161.154 688.381 160.41 688.077 159.754C687.773 159.098 687.325 158.578 686.733 158.194C686.141 157.81 685.469 157.618 684.717 157.618C683.965 157.618 683.277 157.81 682.653 158.194C682.029 158.578 681.541 159.13 681.189 159.85C680.853 160.554 680.717 161.394 680.781 162.37C680.717 163.314 680.861 164.146 681.213 164.866C681.581 165.57 682.093 166.122 682.749 166.522C683.421 166.906 684.149 167.098 684.933 167.098C685.797 167.098 686.525 166.898 687.117 166.498C687.709 166.098 688.189 165.586 688.557 164.962L690.429 165.922C690.173 166.514 689.773 167.058 689.229 167.554C688.701 168.034 688.069 168.418 687.333 168.706C686.613 168.994 685.805 169.138 684.909 169.138ZM693.699 168.85V150.682H695.931V168.85H693.699ZM705.538 169.138C704.29 169.138 703.162 168.85 702.154 168.274C701.146 167.682 700.346 166.874 699.754 165.85C699.162 164.826 698.866 163.666 698.866 162.37C698.866 161.074 699.154 159.922 699.73 158.914C700.322 157.906 701.122 157.106 702.13 156.514C703.138 155.922 704.274 155.626 705.538 155.626C706.786 155.626 707.914 155.922 708.922 156.514C709.93 157.09 710.722 157.882 711.298 158.89C711.89 159.898 712.186 161.058 712.186 162.37C712.186 163.682 711.882 164.85 711.274 165.874C710.666 166.882 709.858 167.682 708.85 168.274C707.858 168.85 706.754 169.138 705.538 169.138ZM705.538 166.978C706.338 166.978 707.058 166.778 707.698 166.378C708.354 165.978 708.866 165.426 709.234 164.722C709.618 164.018 709.81 163.234 709.81 162.37C709.81 161.49 709.618 160.714 709.234 160.042C708.866 159.354 708.354 158.81 707.698 158.41C707.058 157.994 706.338 157.786 705.538 157.786C704.722 157.786 703.986 157.994 703.33 158.41C702.69 158.81 702.178 159.354 701.794 160.042C701.41 160.714 701.218 161.49 701.218 162.37C701.218 163.234 701.41 164.018 701.794 164.722C702.178 165.426 702.69 165.978 703.33 166.378C703.986 166.778 704.722 166.978 705.538 166.978ZM715.097 173.65V155.914H717.281V158.698L716.993 158.146C717.473 157.378 718.129 156.77 718.961 156.322C719.793 155.858 720.745 155.626 721.817 155.626C723.033 155.626 724.121 155.922 725.081 156.514C726.057 157.106 726.825 157.914 727.385 158.938C727.945 159.946 728.225 161.098 728.225 162.394C728.225 163.658 727.945 164.802 727.385 165.826C726.825 166.85 726.057 167.658 725.081 168.25C724.121 168.842 723.025 169.138 721.793 169.138C720.753 169.138 719.801 168.906 718.937 168.442C718.089 167.978 717.433 167.322 716.969 166.474L717.329 166.09V173.65H715.097ZM721.625 166.978C722.441 166.978 723.169 166.778 723.809 166.378C724.449 165.978 724.945 165.434 725.297 164.746C725.665 164.042 725.849 163.258 725.849 162.394C725.849 161.498 725.665 160.714 725.297 160.042C724.945 159.354 724.449 158.81 723.809 158.41C723.169 157.994 722.441 157.786 721.625 157.786C720.809 157.786 720.073 157.986 719.417 158.386C718.777 158.786 718.265 159.338 717.881 160.042C717.513 160.73 717.329 161.514 717.329 162.394C717.329 163.258 717.513 164.042 717.881 164.746C718.265 165.434 718.777 165.978 719.417 166.378C720.073 166.778 720.809 166.978 721.625 166.978ZM731.152 168.85V155.914H733.336V158.554L733.024 158.146C733.344 157.33 733.856 156.706 734.56 156.274C735.264 155.842 736.056 155.626 736.936 155.626C737.944 155.626 738.848 155.906 739.648 156.466C740.464 157.026 741.024 157.762 741.328 158.674L740.704 158.698C741.04 157.69 741.608 156.93 742.408 156.418C743.208 155.89 744.096 155.626 745.072 155.626C745.968 155.626 746.776 155.834 747.496 156.25C748.232 156.666 748.816 157.242 749.248 157.978C749.68 158.714 749.896 159.546 749.896 160.474V168.85H747.64V161.194C747.64 160.474 747.512 159.866 747.256 159.37C747 158.874 746.648 158.49 746.2 158.218C745.768 157.93 745.256 157.786 744.664 157.786C744.088 157.786 743.568 157.93 743.104 158.218C742.656 158.49 742.296 158.882 742.024 159.394C741.768 159.89 741.64 160.49 741.64 161.194V168.85H739.384V161.194C739.384 160.474 739.256 159.866 739 159.37C738.744 158.874 738.392 158.49 737.944 158.218C737.512 157.93 737 157.786 736.408 157.786C735.832 157.786 735.312 157.93 734.848 158.218C734.4 158.49 734.04 158.882 733.768 159.394C733.512 159.89 733.384 160.49 733.384 161.194V168.85H731.152ZM759.018 169.138C757.77 169.138 756.658 168.842 755.682 168.25C754.706 167.658 753.938 166.85 753.378 165.826C752.818 164.786 752.538 163.626 752.538 162.346C752.538 161.05 752.81 159.898 753.354 158.89C753.914 157.882 754.666 157.09 755.61 156.514C756.57 155.922 757.642 155.626 758.826 155.626C759.786 155.626 760.634 155.802 761.37 156.154C762.122 156.49 762.754 156.954 763.266 157.546C763.794 158.122 764.194 158.786 764.466 159.538C764.754 160.274 764.898 161.042 764.898 161.842C764.898 162.018 764.882 162.218 764.85 162.442C764.834 162.65 764.81 162.85 764.778 163.042H754.17V161.122H763.482L762.426 161.986C762.57 161.154 762.49 160.41 762.186 159.754C761.882 159.098 761.434 158.578 760.842 158.194C760.25 157.81 759.578 157.618 758.826 157.618C758.074 157.618 757.386 157.81 756.762 158.194C756.138 158.578 755.65 159.13 755.298 159.85C754.962 160.554 754.826 161.394 754.89 162.37C754.826 163.314 754.97 164.146 755.322 164.866C755.69 165.57 756.202 166.122 756.858 166.522C757.53 166.906 758.258 167.098 759.042 167.098C759.906 167.098 760.634 166.898 761.226 166.498C761.818 166.098 762.298 165.586 762.666 164.962L764.538 165.922C764.282 166.514 763.882 167.058 763.338 167.554C762.81 168.034 762.178 168.418 761.442 168.706C760.722 168.994 759.914 169.138 759.018 169.138ZM767.808 168.85V155.914H769.992V158.434L769.632 158.218C769.952 157.402 770.464 156.77 771.168 156.322C771.888 155.858 772.728 155.626 773.688 155.626C774.616 155.626 775.44 155.834 776.16 156.25C776.896 156.666 777.472 157.242 777.888 157.978C778.32 158.714 778.536 159.546 778.536 160.474V168.85H776.28V161.194C776.28 160.474 776.152 159.866 775.896 159.37C775.64 158.874 775.272 158.49 774.792 158.218C774.328 157.93 773.792 157.786 773.184 157.786C772.576 157.786 772.032 157.93 771.552 158.218C771.088 158.49 770.72 158.882 770.448 159.394C770.176 159.89 770.04 160.49 770.04 161.194V168.85H767.808ZM786.986 168.994C785.722 168.994 784.746 168.634 784.058 167.914C783.386 167.194 783.05 166.178 783.05 164.866V158.05H780.698V155.914H781.178C781.754 155.914 782.21 155.738 782.546 155.386C782.882 155.034 783.05 154.57 783.05 153.994V152.938H785.282V155.914H788.186V158.05H785.282V164.794C785.282 165.226 785.346 165.602 785.474 165.922C785.618 166.242 785.85 166.498 786.17 166.69C786.49 166.866 786.914 166.954 787.442 166.954C787.554 166.954 787.69 166.946 787.85 166.93C788.026 166.914 788.186 166.898 788.33 166.882V168.85C788.122 168.898 787.89 168.93 787.634 168.946C787.378 168.978 787.162 168.994 786.986 168.994ZM790.142 172.45C791.278 170.802 792.142 169.074 792.734 167.266C793.326 165.442 793.622 163.586 793.622 161.698C793.622 159.81 793.326 157.962 792.734 156.154C792.142 154.33 791.278 152.602 790.142 150.97H792.062C793.358 152.442 794.334 154.082 794.99 155.89C795.662 157.698 795.998 159.634 795.998 161.698C795.998 163.746 795.662 165.682 794.99 167.506C794.334 169.314 793.358 170.962 792.062 172.45H790.142Z" fill="white"/>
</svg>
