<svg preserveAspectRatio="none" overflow="visible" style="display: block;" width="69.0068" height="62.7995" viewBox="0 0 69.0068 62.7995" fill="none" xmlns="http://www.w3.org/2000/svg">
<path id="Star 6" d="M33.2912 1.07108C33.4239 -0.358343 35.5116 -0.356429 35.6417 1.07324L37.0142 16.1493C37.5784 22.3474 42.4225 27.2946 48.6073 27.9894L67.9583 30.1633C69.3387 30.3183 69.3638 32.3155 67.9879 32.5053L48.2669 35.2259C42.2341 36.0582 37.5687 40.935 37.0043 46.9986L35.6334 61.7286C35.5007 63.1541 33.4206 63.1574 33.2834 61.7323L31.8566 46.9123C31.2739 40.8606 26.6073 36.0034 20.5838 35.1792L1.02023 32.502C-0.356877 32.3135 -0.33253 30.3146 1.04876 30.1598L20.2935 28.0023C26.4707 27.3099 31.3125 22.3749 31.8874 16.1857L33.2912 1.07108Z" fill="var(--fill-0, #08E6FF)"/>
</svg>
