<svg width="47" height="55" viewBox="0 0 47 55" fill="none" xmlns="http://www.w3.org/2000/svg">
<path d="M35.915 9.17144L30.3288 3.58644C30.143 3.40067 29.9225 3.25331 29.6799 3.15277C29.4372 3.05224 29.1771 3.00049 28.9144 3.00049C28.6517 3.00049 28.3916 3.05224 28.1489 3.15277C27.9062 3.25331 27.6857 3.40067 27.5 3.58644L12.0863 19.0002C11.8997 19.1852 11.7519 19.4055 11.6512 19.6482C11.5506 19.8909 11.4992 20.1512 11.5 20.4139V26.0002C11.5 26.5306 11.7107 27.0393 12.0858 27.4144C12.4609 27.7895 12.9696 28.0002 13.5 28.0002H34.5C34.7652 28.0002 35.0196 27.8948 35.2071 27.7073C35.3947 27.5198 35.5 27.2654 35.5 27.0002C35.5 26.735 35.3947 26.4806 35.2071 26.2931C35.0196 26.1055 34.7652 26.0002 34.5 26.0002H21.915L35.915 12.0002C36.1008 11.8145 36.2481 11.594 36.3487 11.3513C36.4492 11.1086 36.501 10.8485 36.501 10.5858C36.501 10.3231 36.4492 10.063 36.3487 9.82034C36.2481 9.57766 36.1008 9.35716 35.915 9.17144ZM19.0863 26.0002H13.5V20.4139L24.5 9.41394L30.0863 15.0002L19.0863 26.0002ZM31.5 13.5864L25.915 8.00019L28.915 5.00019L34.5 10.5864L31.5 13.5864Z" fill="white"/>
<path d="M1.596 52V42.2H5.586C6.63134 42.2 7.546 42.41 8.33 42.83C9.12334 43.2407 9.73934 43.8147 10.178 44.552C10.6167 45.2893 10.836 46.1387 10.836 47.1C10.836 48.0613 10.6167 48.9107 10.178 49.648C9.73934 50.3853 9.12334 50.964 8.33 51.384C7.546 51.7947 6.63134 52 5.586 52H1.596ZM2.632 51.104H5.53C6.398 51.104 7.14934 50.936 7.784 50.6C8.428 50.2547 8.92734 49.7833 9.282 49.186C9.63667 48.5793 9.814 47.884 9.814 47.1C9.814 46.3067 9.63667 45.6113 9.282 45.014C8.92734 44.4167 8.428 43.95 7.784 43.614C7.14934 43.2687 6.398 43.096 5.53 43.096H2.632V51.104ZM16.0744 52.07C15.3091 52.07 14.6371 51.9113 14.0584 51.594C13.4797 51.2673 13.0271 50.824 12.7004 50.264C12.3737 49.6947 12.2104 49.046 12.2104 48.318C12.2104 47.59 12.3644 46.946 12.6724 46.386C12.9897 45.826 13.4191 45.3873 13.9604 45.07C14.5111 44.7433 15.1271 44.58 15.8084 44.58C16.4991 44.58 17.1104 44.7387 17.6424 45.056C18.1837 45.364 18.6084 45.8027 18.9164 46.372C19.2244 46.932 19.3784 47.5807 19.3784 48.318C19.3784 48.3647 19.3737 48.416 19.3644 48.472C19.3644 48.5187 19.3644 48.57 19.3644 48.626H12.9664V47.884H18.8324L18.4404 48.178C18.4404 47.646 18.3237 47.1747 18.0904 46.764C17.8664 46.344 17.5584 46.0173 17.1664 45.784C16.7744 45.5507 16.3217 45.434 15.8084 45.434C15.3044 45.434 14.8517 45.5507 14.4504 45.784C14.0491 46.0173 13.7364 46.344 13.5124 46.764C13.2884 47.184 13.1764 47.6647 13.1764 48.206V48.36C13.1764 48.92 13.2977 49.4147 13.5404 49.844C13.7924 50.264 14.1377 50.5953 14.5764 50.838C15.0244 51.0713 15.5331 51.188 16.1024 51.188C16.5504 51.188 16.9657 51.1087 17.3484 50.95C17.7404 50.7913 18.0764 50.5487 18.3564 50.222L18.9164 50.866C18.5897 51.258 18.1791 51.5567 17.6844 51.762C17.1991 51.9673 16.6624 52.07 16.0744 52.07ZM21.5696 52V43.726C21.5696 43.0727 21.761 42.5453 22.1436 42.144C22.5263 41.7427 23.077 41.542 23.7956 41.542C24.0756 41.542 24.3463 41.5793 24.6076 41.654C24.869 41.7287 25.0883 41.8453 25.2656 42.004L24.9296 42.746C24.7896 42.6247 24.6263 42.536 24.4396 42.48C24.253 42.4147 24.0523 42.382 23.8376 42.382C23.4176 42.382 23.0956 42.4987 22.8716 42.732C22.6476 42.9653 22.5356 43.3107 22.5356 43.768V44.888L22.5636 45.35V52H21.5696ZM20.2536 45.476V44.65H24.8036V45.476H20.2536ZM26.1476 52V44.65H27.1416V52H26.1476ZM26.6516 43.026C26.4463 43.026 26.2736 42.956 26.1336 42.816C25.9936 42.676 25.9236 42.508 25.9236 42.312C25.9236 42.116 25.9936 41.9527 26.1336 41.822C26.2736 41.682 26.4463 41.612 26.6516 41.612C26.857 41.612 27.0296 41.6773 27.1696 41.808C27.3096 41.9387 27.3796 42.102 27.3796 42.298C27.3796 42.5033 27.3096 42.676 27.1696 42.816C27.039 42.956 26.8663 43.026 26.6516 43.026ZM33.6849 44.58C34.2822 44.58 34.8049 44.6967 35.2529 44.93C35.7102 45.154 36.0649 45.4993 36.3169 45.966C36.5782 46.4327 36.7089 47.0207 36.7089 47.73V52H35.7149V47.828C35.7149 47.0533 35.5189 46.47 35.1269 46.078C34.7442 45.6767 34.2029 45.476 33.5029 45.476C32.9802 45.476 32.5229 45.5833 32.1309 45.798C31.7482 46.0033 31.4495 46.3067 31.2349 46.708C31.0295 47.1 30.9269 47.576 30.9269 48.136V52H29.9329V44.65H30.8849V46.666L30.7309 46.288C30.9642 45.756 31.3375 45.3407 31.8509 45.042C32.3642 44.734 32.9755 44.58 33.6849 44.58ZM42.5158 52.07C41.7505 52.07 41.0785 51.9113 40.4998 51.594C39.9211 51.2673 39.4685 50.824 39.1418 50.264C38.8151 49.6947 38.6518 49.046 38.6518 48.318C38.6518 47.59 38.8058 46.946 39.1138 46.386C39.4311 45.826 39.8605 45.3873 40.4018 45.07C40.9525 44.7433 41.5685 44.58 42.2498 44.58C42.9405 44.58 43.5518 44.7387 44.0838 45.056C44.6251 45.364 45.0498 45.8027 45.3578 46.372C45.6658 46.932 45.8198 47.5807 45.8198 48.318C45.8198 48.3647 45.8151 48.416 45.8058 48.472C45.8058 48.5187 45.8058 48.57 45.8058 48.626H39.4078V47.884H45.2738L44.8818 48.178C44.8818 47.646 44.7651 47.1747 44.5318 46.764C44.3078 46.344 43.9998 46.0173 43.6078 45.784C43.2158 45.5507 42.7631 45.434 42.2498 45.434C41.7458 45.434 41.2931 45.5507 40.8918 45.784C40.4905 46.0173 40.1778 46.344 39.9538 46.764C39.7298 47.184 39.6178 47.6647 39.6178 48.206V48.36C39.6178 48.92 39.7391 49.4147 39.9818 49.844C40.2338 50.264 40.5791 50.5953 41.0178 50.838C41.4658 51.0713 41.9745 51.188 42.5438 51.188C42.9918 51.188 43.4071 51.1087 43.7898 50.95C44.1818 50.7913 44.5178 50.5487 44.7978 50.222L45.3578 50.866C45.0311 51.258 44.6205 51.5567 44.1258 51.762C43.6405 51.9673 43.1038 52.07 42.5158 52.07Z" fill="white"/>
</svg>
